<svg xmlns="http://www.w3.org/2000/svg" width="77" height="101" viewBox="0 0 77 101" fill="none">
<path fill-rule="evenodd" clip-rule="evenodd" d="M60.1846 50.3672V0H16.2031V50.3672C16.2058 62.8226 26.0506 72.9167 38.1944 72.9167C50.3372 72.9167 60.1815 62.8226 60.1846 50.3672Z" fill="#F9F9F9"/>
<path fill-rule="evenodd" clip-rule="evenodd" d="M44.2293 41.5956C43.6999 40.4073 42.173 40.3872 41.3124 41.255C40.7368 41.8168 39.4433 42.4182 38.9829 41.8632C38.8833 41.2522 39.4232 41.3648 39.6611 41.6628C39.8177 41.5725 39.799 41.3463 39.799 41.2334C40.0369 41.1212 40.3423 41.0476 40.3423 40.7457C39.9672 40.6441 39.4735 40.6151 39.079 40.7733H39.3165L39.3882 40.8586V41.1425L39.3165 41.2295H39.0454L38.9757 41.1425V40.8586L39.0267 40.7956C38.8548 40.8735 38.7025 40.9857 38.5945 41.1541C38.0023 42.2118 39.0633 42.7208 39.7909 42.5452C41.1469 42.2313 41.3654 41.5336 42.3483 41.1878C44.0982 40.7612 43.9367 42.8334 42.6969 42.8508H38.1457C37.5014 42.8508 36.9942 42.1725 36.8457 41.3917C36.8885 41.1007 36.8406 40.9602 36.6622 40.7287L36.7237 40.3071L35.6653 40.3691L34.3555 40.6225C34.2746 40.9131 34.3834 41.0787 34.4401 41.2834L34.7197 41.2717C34.8723 41.46 34.7384 41.5074 34.6338 41.6016L34.453 41.6837C34.4177 42.0125 34.4401 42.2904 34.6086 42.3144L34.9205 42.0798C35.0911 42.0529 35.1628 42.3144 35.1343 42.4419C35.0286 42.6079 34.8013 42.7728 34.5985 42.8433L33.0821 42.7668C32.8999 42.6833 32.6104 42.1237 32.4749 42.2387C32.2999 42.3867 32.3278 42.8609 32.2799 43.0741L33.642 43.5601L33.9016 43.9986L34.6107 43.8978C35.1363 43.8471 35.3341 44.2797 35.1343 44.7462C34.9664 45.3604 34.1849 46.0952 33.6213 46.0757L33.5638 46.7267H34.5533L34.805 46.3319C35.0738 46.1893 35.5767 46.0683 35.8009 45.7366C35.7815 45.4365 36.3109 45.052 36.7475 45.1504L37.5266 45.355C37.7675 45.0743 38.4895 44.9023 39.114 44.915L39.7837 44.9621C39.4949 45.5225 38.9207 45.8449 38.3991 46.27C38.164 46.7093 38.7767 46.7475 39.0454 46.7093L39.4827 46.5277L40.0189 45.8623C40.3423 45.5628 40.6291 45.5058 40.8272 45.7943C41.2036 45.5224 41.8329 45.4148 42.3483 45.5553C42.8756 45.8824 42.4791 46.1844 42.1543 46.1334C41.8152 46.4477 42.0989 46.6211 42.3177 46.7093L43.021 46.6548L43.1916 46.0683L43.0727 44.9621L42.0833 44.5841L42.0989 43.5693C43.0727 43.2829 44.5691 43.0957 44.2293 41.5956ZM35.172 43.7916L35.1013 43.8747H34.8294L34.7605 43.7916V43.5088L34.8294 43.4234H35.1013L35.172 43.5088V43.7916ZM35.9144 44.5639L35.8441 44.6506H35.575L35.5039 44.5639V44.2825L35.575 44.1979H35.8441L35.9144 44.2825V44.5639ZM35.9144 43.1477L35.8441 43.2316H35.575L35.5039 43.1477V42.8617L35.575 42.776H35.8441L35.9144 42.8617V43.1477ZM35.9144 41.6593L35.8441 41.746H35.575L35.5039 41.6593V41.3754L35.575 41.2933H35.8441L35.9144 41.3754V41.6593ZM36.123 42.3085V42.0221L36.194 41.9364H36.4648L36.5371 42.0221V42.3085L36.4648 42.3899H36.194L36.123 42.3085ZM36.6591 43.8553L36.5882 43.9427H36.318L36.2484 43.8553V43.5721L36.318 43.4893H36.5882L36.6591 43.5721V43.8553ZM36.8657 42.8617L36.9367 42.776H37.2086L37.2792 42.8617V43.1477L37.2086 43.2316H36.9367L36.8657 43.1477V42.8617ZM37.3404 44.5639L37.2721 44.6506H37.0003L36.9279 44.5639V44.2825L37.0003 44.1979H37.2721L37.3404 44.2825V44.5639ZM38.0243 43.8553L37.9506 43.9427H37.6822L37.6105 43.8553V43.5721L37.6822 43.4893H37.9506L38.0243 43.5721V43.8553ZM38.6431 44.5639L38.5714 44.6506H38.302L38.2309 44.5639V44.2825L38.302 44.1979H38.5714L38.6431 44.2825V44.5639ZM39.3882 43.7916L39.3165 43.8747H39.0454L38.9757 43.7916V43.5088L39.0454 43.4234H39.3165L39.3882 43.5088V43.7916ZM40.6892 45.2095L40.6179 45.2976H40.3481L40.2778 45.2095V44.9285L40.3481 44.8457H40.6179L40.6892 44.9285V45.2095ZM40.7503 43.7916L40.6814 43.8747H40.4089L40.3379 43.7916V43.5088L40.4089 43.4234H40.6814L40.7503 43.5088V43.7916ZM41.4938 44.5639L41.4245 44.6506H41.1533L41.083 44.5639V44.2825L41.1533 44.1979H41.4245L41.4938 44.2825V44.5639ZM42.932 46.1692V46.453L42.8634 46.5369H42.5936L42.522 46.453V46.1692L42.5936 46.0835H42.8634L42.932 46.1692ZM42.4462 45.1887L42.5169 45.1019H42.788L42.861 45.1887V45.4715L42.788 45.5553H42.5169L42.4462 45.4715V45.1887ZM43.999 59.0942C45.3849 58.5402 46.6926 57.7888 47.8978 56.8698L46.1062 58.8559L46.1048 58.8566C45.235 59.3342 44.3323 59.7352 43.4054 60.0541L43.999 59.0942ZM43.0062 58.6956L42.595 58.8248L42.2631 57.6751L42.6612 57.5498C42.9752 57.4511 43.333 57.489 43.459 57.9229C43.5753 58.3286 43.3113 58.6004 43.0062 58.6956ZM44.3397 58.2443C44.0071 58.3848 43.6683 58.251 43.5307 57.8999C43.3924 57.5431 43.5515 57.215 43.8844 57.0744C44.2184 56.9325 44.5531 57.0536 44.691 57.4086C44.8287 57.7601 44.6744 58.1024 44.3397 58.2443ZM45.7097 57.5817C45.565 57.6616 45.39 57.6872 45.2517 57.6387L45.3254 57.3806C45.408 57.4174 45.5232 57.4153 45.6016 57.3711C45.6767 57.3293 45.7284 57.2628 45.6845 57.1778C45.6438 57.0971 45.5534 57.1148 45.3964 57.1431C45.2446 57.1711 45.0808 57.1746 44.9819 56.9835C44.8623 56.7488 45.0173 56.5389 45.2065 56.4338C45.3213 56.3707 45.4732 56.3442 45.6057 56.38L45.5364 56.639C45.4667 56.6061 45.3726 56.6129 45.3098 56.6472C45.2466 56.6822 45.1786 56.7488 45.2214 56.8327C45.2567 56.9028 45.3285 56.8922 45.4416 56.8691C45.6016 56.8401 45.811 56.8026 45.919 57.0132C46.043 57.2575 45.9112 57.4698 45.7097 57.5817ZM46.6492 57.0157C46.3937 57.1839 46.1334 57.1233 45.9859 56.8797L45.6037 56.2493L45.8368 56.0954L46.2068 56.7063C46.2727 56.8147 46.3845 56.8812 46.5163 56.7944C46.6498 56.7071 46.639 56.5739 46.5724 56.4656L46.2017 55.8547L46.4368 55.6997L46.8191 56.3308C46.9665 56.5739 46.9023 56.8482 46.6492 57.0157ZM47.224 56.5867L46.5472 55.619L46.7722 55.4491L47.3066 56.2118L47.6658 55.9386L47.8085 56.1417L47.224 56.5867ZM42.7241 57.7888L42.5923 57.8305L42.786 58.5027L42.9127 58.4631C43.103 58.404 43.2549 58.2673 43.1808 58.0103C43.1064 57.7526 42.9079 57.7317 42.7241 57.7888ZM40.5109 54.8703C40.3977 54.8905 40.3345 54.9868 40.3539 55.1057C40.3725 55.2186 40.4615 55.288 40.5734 55.2692C40.6851 55.2491 40.7497 55.1535 40.731 55.0371C40.713 54.9287 40.625 54.8495 40.5109 54.8703ZM37.7481 55.0699C37.5956 55.064 37.5569 55.3124 37.5504 55.4709C37.544 55.6345 37.564 55.8848 37.7169 55.8915C37.8667 55.8982 37.9044 55.6494 37.9109 55.4859C37.9167 55.3269 37.899 55.0767 37.7481 55.0699ZM41.4007 56.4426C42.3806 56.2012 43.3245 55.8472 44.2242 55.3938L42.1607 57.0603C41.3259 57.3084 40.4629 57.4786 39.5795 57.5608L40.9648 56.6309L41.4007 56.4426ZM33.8717 55.3931L33.5998 55.294L33.8938 54.4161L33.6219 54.511L33.5482 54.2587L34.0222 54.1079L34.2722 54.1988L33.8717 55.3931ZM34.9678 55.7187L34.6895 55.6433L34.912 54.7432L34.6487 54.8601L34.555 54.6158L35.0161 54.4236L35.2712 54.4915L34.9678 55.7187ZM36.7954 56.0476L36.508 56.0119L36.616 55.0876L36.3693 55.2409L36.2453 55.0108L36.6785 54.7574L36.9415 54.7896L36.7954 56.0476ZM37.7067 56.1485C37.3618 56.1343 37.2422 55.8183 37.2551 55.4597C37.2694 55.1025 37.4134 54.8023 37.7576 54.8165C38.1012 54.8314 38.2194 55.1414 38.2044 55.4986C38.1922 55.8571 38.0495 56.1633 37.7067 56.1485ZM39.4986 56.072L39.4188 55.1436L39.2081 55.3471L39.0403 55.1482L39.4137 54.8055L39.6777 54.7807L39.7861 56.0444L39.4986 56.072ZM40.9461 55.3999L40.7296 55.9032L40.3854 55.9647L40.6135 55.4798L40.6155 55.4738C40.5934 55.4872 40.5605 55.4979 40.5333 55.5029C40.3223 55.541 40.1109 55.4098 40.0704 55.1648C40.024 54.8809 40.2091 54.6732 40.4694 54.6268C40.7323 54.579 40.9713 54.7149 41.0158 54.9892C41.0406 55.1372 41.0056 55.2618 40.9461 55.3999ZM41.7771 55.6629L41.453 55.7517L41.683 54.6441L41.1262 54.7964L41.063 54.5468L41.9188 54.3125L41.9769 54.5461L41.7771 55.6629ZM42.8668 55.3216L42.5508 55.4359L42.6969 54.3153L42.1543 54.5125L42.0731 54.2696L42.9062 53.9666L42.981 54.1928L42.8668 55.3216ZM32.447 57.342L32.3263 57.2868L32.2295 57.5144L32.3373 57.5636C32.4103 57.5959 32.5091 57.6192 32.5506 57.5205C32.5894 57.4281 32.5129 57.3732 32.447 57.342ZM33.3991 57.7356C33.237 57.6759 33.0814 57.764 33.0212 57.9389C32.9594 58.1197 33.0276 58.2914 33.1884 58.3512C33.3508 58.411 33.5088 58.3236 33.5703 58.1434C33.6304 57.9686 33.5618 57.7962 33.3991 57.7356ZM28.932 55.586L29.0625 55.2222L28.7357 55.4133L28.932 55.586ZM30.4664 56.2157C30.3211 56.117 30.1495 56.1648 30.0512 56.3209C29.9497 56.4816 29.9775 56.6652 30.1209 56.7637C30.2643 56.861 30.4379 56.8154 30.5395 56.6547C30.6381 56.4993 30.6112 56.3148 30.4664 56.2157ZM36.0577 58.411C35.8869 58.3855 35.7513 58.5055 35.7258 58.6889C35.7006 58.8786 35.7996 59.0329 35.9694 59.0591C36.1393 59.0839 36.2776 58.965 36.3041 58.7752C36.3286 58.5901 36.2283 58.4362 36.0577 58.411ZM36.969 57.558C36.0833 57.4755 35.2188 57.3038 34.3813 57.0514L32.2998 55.3722C33.1996 55.8289 34.1445 56.1871 35.1248 56.4316L35.5902 56.633L36.969 57.558ZM27.9549 55.2423L28.4703 54.7128L28.4683 54.7096L27.7683 55.048L27.646 54.9195L27.9742 54.196L27.9715 54.1928L27.4639 54.7305L27.2994 54.5596L28.0231 53.806L28.2705 54.0643L27.9715 54.7188L27.9749 54.723L28.5966 54.4034L28.8492 54.6664L28.1261 55.42L27.9549 55.2423ZM28.7866 56.0019L28.8562 55.7892L28.5542 55.523L28.3673 55.6314L28.1628 55.4501L29.1502 54.928L29.333 55.0891L28.9959 56.1864L28.7866 56.0019ZM29.12 56.2745L29.6088 55.5995L29.3789 55.4179L29.5056 55.2423L30.1641 55.7609L30.037 55.9368L29.8056 55.7548L29.3164 56.4298L29.12 56.2745ZM30.761 56.8058C30.5834 57.0872 30.2643 57.1424 29.9969 56.9594C29.7308 56.7771 29.6534 56.4507 29.831 56.1694C30.0105 55.884 30.3211 55.8398 30.5878 56.0221C30.8559 56.2051 30.9404 56.5205 30.761 56.8058ZM31.2479 57.7193C30.9598 57.5629 30.8507 57.25 31.0006 56.9534C31.1521 56.6511 31.4637 56.5757 31.7392 56.7265C31.8805 56.8041 31.9886 56.9251 32.0253 57.0408L31.8045 57.1297C31.7878 57.0554 31.7341 56.9796 31.6458 56.9311C31.4932 56.8475 31.3176 56.9109 31.233 57.0798C31.1457 57.2525 31.1813 57.4302 31.3597 57.5265C31.4107 57.5548 31.4623 57.5721 31.5082 57.5757L31.5945 57.4047L31.4222 57.3105L31.5147 57.1275L31.8877 57.3314L31.6367 57.8284C31.5242 57.8284 31.3866 57.7962 31.2479 57.7193ZM32.5387 58.3204L32.274 58.1993L32.2367 57.7193L32.1592 57.6847L31.9964 58.0719L31.7742 57.9693L32.1857 56.9955L32.5421 57.1597C32.7222 57.2419 32.87 57.3951 32.7752 57.6178C32.7208 57.7477 32.6066 57.8075 32.4711 57.7916L32.5387 58.3204ZM33.113 58.572C32.8133 58.4602 32.6648 58.1636 32.7725 57.8475C32.8829 57.5265 33.1745 57.4068 33.4741 57.5183C33.7755 57.6309 33.9281 57.9155 33.8183 58.2354C33.7096 58.5519 33.4147 58.6836 33.113 58.572ZM34.0766 58.8868C33.9369 58.8457 33.8092 58.7508 33.7473 58.6319L33.9481 58.5123C33.9783 58.5873 34.0535 58.6595 34.1313 58.6818C34.2036 58.7023 34.2753 58.6924 34.2981 58.6103C34.3188 58.5324 34.2495 58.4854 34.1313 58.4043C34.0184 58.3264 33.9094 58.222 33.959 58.0372C34.0198 57.8097 34.2423 57.7736 34.4258 57.8267C34.5376 57.8589 34.6508 57.9389 34.7146 58.0458L34.5189 58.1682C34.4938 58.1038 34.4279 58.0464 34.3671 58.0298C34.3059 58.0107 34.2237 58.0107 34.2019 58.0917C34.1836 58.16 34.2372 58.1993 34.3205 58.2563C34.4435 58.3399 34.5998 58.4496 34.5447 58.6535C34.4815 58.8896 34.2716 58.942 34.0766 58.8868ZM35.3487 58.833C35.3011 59.0719 35.0942 59.1384 34.8968 59.0953C34.7547 59.0638 34.6229 58.977 34.5542 58.8634L34.7469 58.7299C34.7812 58.8039 34.8601 58.8708 34.9392 58.8881C35.013 58.9044 35.0826 58.8896 35.1006 58.8061C35.1163 58.7267 35.0453 58.6843 34.9233 58.6117C34.8057 58.5409 34.6912 58.4454 34.7296 58.257C34.7764 58.027 34.9963 57.976 35.1822 58.0171C35.2947 58.0418 35.4122 58.1144 35.4825 58.2174L35.2947 58.3519C35.264 58.2882 35.1971 58.2369 35.1349 58.2234C35.0738 58.2093 34.9915 58.2142 34.9742 58.2967C34.9606 58.3654 35.015 58.3997 35.1027 58.4521C35.2294 58.5268 35.3915 58.6259 35.3487 58.833ZM35.9378 59.2899C35.6232 59.2435 35.4193 58.9831 35.4655 58.65C35.5107 58.313 35.7737 58.136 36.089 58.1824C36.4054 58.2287 36.6102 58.4758 36.5644 58.8135C36.5191 59.1458 36.2548 59.337 35.9378 59.2899ZM32.5571 59.0882L33.1517 60.0502C32.218 59.7271 31.3061 59.3207 30.4298 58.8365L28.6174 56.8302C29.8348 57.764 31.1562 58.5268 32.5571 59.0882ZM26.6484 55.0767L29.6068 58.354C27.4982 57.0373 25.6234 55.2604 24.1576 53.1277L24.1335 54.9617L22.5932 54.9496C25.1055 58.5154 28.6541 61.1542 32.5445 62.4965L33.5747 60.1886L33.5717 60.188L32.9954 59.257C34.1037 59.6619 35.2589 59.9423 36.4492 60.0831L37.5548 57.6058L37.5568 57.604L37.5555 57.6033L37.5568 57.6012H37.5524L36.1165 56.6377C36.8052 56.7527 37.5082 56.8125 38.2238 56.8125H38.3448C39.0525 56.8125 39.748 56.7548 40.4289 56.6412L38.9981 57.6019L40.1058 60.0849C41.2967 59.9458 42.4526 59.6665 43.561 59.2609L42.9867 60.1915L42.9858 60.1922L44.0156 62.4997C47.9043 61.161 51.4522 58.5261 53.9659 54.9645L52.483 54.877L52.4015 53.1426C50.931 55.2795 49.0493 57.0574 46.9329 58.3721L50.0999 54.8898L50.1237 54.865L50.123 54.8636L48.5743 53.0598C46.9672 54.7383 45.056 56.0249 42.9514 56.7973L46.2631 54.1429L46.2798 54.1316L44.6866 52.2754C42.8159 53.5295 40.6542 54.2579 38.3448 54.2579H38.2238C35.9086 54.2579 33.7419 53.5252 31.8677 52.2644L30.2745 54.1196L30.2738 54.1213L30.3023 54.1415L33.592 56.7878C31.4912 56.0125 29.5855 54.7248 27.9827 53.0463L26.4327 54.8515C26.5037 54.9269 26.5753 55.002 26.6484 55.0767ZM30.744 50.0684C30.2371 50.4326 29.8522 51.3052 29.6843 52.1536C29.1716 51.5165 28.4849 50.9714 27.9039 50.8914C27.7948 51.5077 28.0983 52.383 28.5392 53.098C28.4713 53.0888 28.4023 53.0827 28.3347 53.0771C28.5793 53.3234 28.9222 53.664 29.1903 53.9104C29.1923 53.9107 29.1967 53.9114 29.2001 53.9114C29.0921 53.6215 29.1342 53.5295 29.1342 53.5295C29.2259 53.6378 29.2864 53.8441 29.3098 53.933C29.3551 53.9426 29.3897 53.95 29.4312 53.9585C29.5654 53.876 29.7237 53.876 29.8562 53.9419L29.9316 53.8686C29.8579 53.7748 29.7682 53.6573 29.667 53.5207C29.5848 53.5387 29.3731 53.5798 29.2348 53.5423C29.2348 53.5423 29.3 53.4623 29.5997 53.4297C29.492 53.2824 29.3724 53.1175 29.2456 52.9401C29.1478 52.9617 28.912 53.0046 28.7571 52.9628C28.7571 52.9628 28.8261 52.8708 29.1709 52.8329C29.1172 52.7578 29.0635 52.6817 29.0088 52.6028C28.9552 52.5263 28.9069 52.4562 28.8577 52.3855C28.7523 52.4099 28.4638 52.4651 28.2776 52.4152C28.2776 52.4152 28.3592 52.3048 28.773 52.2627C28.6534 52.0881 28.5477 51.9334 28.4574 51.7976C28.3708 51.817 28.1659 51.8535 28.0323 51.8177C28.0323 51.8177 28.0975 51.7377 28.3966 51.7055C28.1971 51.4001 28.069 51.1848 27.9885 51.0139C28.0996 51.1356 28.2617 51.3328 28.4897 51.6347C28.6117 51.3494 28.7047 51.3084 28.7047 51.3084C28.6962 51.4517 28.6007 51.6415 28.556 51.7222C28.6534 51.8535 28.7635 52.005 28.8841 52.1752C29.0496 51.7826 29.1747 51.7363 29.1747 51.7363C29.1631 51.9335 29.0268 52.1947 28.9714 52.2973C29.021 52.3681 29.07 52.4382 29.1244 52.5153C29.1787 52.5936 29.231 52.6683 29.2827 52.7444C29.4213 52.4194 29.526 52.3802 29.526 52.3802C29.5171 52.543 29.4091 52.7578 29.3568 52.8527C29.4808 53.0322 29.5946 53.201 29.6945 53.3532C29.8154 53.0739 29.9079 53.0329 29.9079 53.0329C29.8987 53.1769 29.8018 53.3684 29.7573 53.4495C29.8491 53.5879 29.9272 53.7111 29.9897 53.8119L30.0836 53.721C30.0802 53.5939 30.1223 53.4661 30.215 53.3727C30.2198 53.327 30.2235 53.2866 30.23 53.2368C30.1559 53.1868 29.986 53.0619 29.9157 52.938C29.9157 52.938 30.0125 52.9246 30.2442 53.121C30.2673 52.9373 30.2959 52.7342 30.3268 52.5161C30.2398 52.4562 30.0499 52.3165 29.9704 52.1763C29.9704 52.1763 30.0808 52.1618 30.3461 52.3851C30.3598 52.2927 30.372 52.2014 30.3876 52.1058C30.4012 52.0117 30.4148 51.9253 30.4291 51.8393C30.334 51.7749 30.0988 51.606 30.0033 51.4358C30.0033 51.4358 30.1352 51.4181 30.4529 51.6885C30.4865 51.48 30.5188 51.2939 30.5483 51.1303C30.4729 51.0797 30.305 50.9558 30.2351 50.833C30.2351 50.833 30.3332 50.8195 30.5697 51.0199C30.6401 50.6443 30.6982 50.3916 30.7447 50.232C30.7474 50.4203 30.7281 50.6727 30.6822 51.0386C30.9669 50.9243 31.0559 50.9682 31.0559 50.9682C30.952 51.0631 30.7546 51.1275 30.6686 51.1512C30.6472 51.3151 30.6214 51.5037 30.5904 51.7147C30.9771 51.5569 31.0987 51.6166 31.0987 51.6166C30.954 51.7498 30.6724 51.8354 30.5677 51.8641C30.5555 51.9505 30.5425 52.035 30.5283 52.1292C30.5137 52.2255 30.4987 52.3189 30.4851 52.4113C30.8079 52.2814 30.9102 52.3313 30.9102 52.3313C30.79 52.4421 30.5599 52.5143 30.4644 52.5416C30.4291 52.7596 30.3948 52.9621 30.3632 53.1447C30.6472 53.029 30.7362 53.0725 30.7362 53.0725C30.6299 53.172 30.4226 53.2361 30.3417 53.2584C30.3404 53.2683 30.3383 53.2749 30.3374 53.2853C30.4107 53.2495 30.4902 53.2407 30.5677 53.2467L31.0818 52.7448C31.2517 51.8078 31.1705 50.65 30.744 50.0684ZM26.7619 54.007L27.0874 53.6867C26.7833 53.6258 26.5652 53.5712 26.4069 53.5146C26.5675 53.5185 26.8163 53.5394 27.1812 53.5847C27.0708 53.2892 27.1133 53.1957 27.1133 53.1957C27.1819 53.2764 27.2328 53.413 27.2644 53.5139L27.7269 53.0605C27.1319 53.0821 26.5675 53.2159 26.2206 53.493C26.3453 53.6821 26.5346 53.8551 26.7619 54.007ZM27.491 50.5852C27.4173 50.4082 27.2213 50.3268 27.0507 50.4022C26.8808 50.479 26.8027 50.6836 26.8751 50.8609C26.9488 51.0379 27.1448 51.1193 27.3154 51.0439C27.4853 50.9675 27.5634 50.7629 27.491 50.5852ZM28.4774 50.1445C28.4044 49.9668 28.2066 49.8854 28.0374 49.9615C27.8669 50.0369 27.7883 50.2429 27.8618 50.4199C27.9341 50.5962 28.1318 50.6786 28.3017 50.6022C28.4713 50.5261 28.5501 50.3208 28.4774 50.1445ZM26.9423 48.5602C26.9756 48.6394 27.0093 48.7194 27.0456 48.8076C27.083 48.8957 27.1173 48.9821 27.1512 49.0674C27.3561 48.7829 27.4659 48.7686 27.4659 48.7686C27.4221 48.924 27.2716 49.1099 27.2012 49.1899C27.2831 49.3937 27.3589 49.5842 27.4245 49.7562C27.6021 49.511 27.6997 49.4925 27.6997 49.4925C27.661 49.6313 27.5254 49.7955 27.4652 49.8642C27.6287 50.2939 27.7248 50.582 27.7038 50.5912C27.6817 50.6015 27.5485 50.3317 27.3612 49.9123C27.278 49.9113 27.0629 49.9024 26.9359 49.8352C26.9359 49.8352 27.0164 49.7718 27.3161 49.809C27.2417 49.6404 27.1605 49.4528 27.0745 49.2497C26.9746 49.2483 26.7344 49.2363 26.592 49.1594C26.592 49.1594 26.6793 49.0855 27.0235 49.1279C26.9878 49.0426 26.9512 48.9559 26.9145 48.8664C26.8781 48.7789 26.8451 48.6993 26.8135 48.62C26.7052 48.6186 26.4126 48.6072 26.2407 48.5155C26.2407 48.5155 26.344 48.4271 26.7561 48.4809C26.6759 48.283 26.6069 48.1082 26.5475 47.9545C26.4578 47.9532 26.2512 47.9425 26.1285 47.8767C26.1285 47.8767 26.2091 47.8133 26.5074 47.8511C26.3777 47.5064 26.2984 47.2664 26.2563 47.0827C26.3382 47.2261 26.4558 47.4561 26.6128 47.8034C26.7928 47.5524 26.8917 47.5348 26.8917 47.5348C26.8537 47.6721 26.7201 47.8349 26.6586 47.9043C26.7259 48.0543 26.8013 48.2271 26.8839 48.4203C27.1275 48.0763 27.2593 48.0597 27.2593 48.0597C27.2063 48.2487 27.0191 48.4734 26.9423 48.5602ZM26.065 46.5868C26.0147 46.4017 25.8296 46.2933 25.6512 46.3472C25.4728 46.4 25.3702 46.5929 25.4205 46.778C25.4718 46.9634 25.657 47.0714 25.8353 47.0179C26.012 46.9656 26.1164 46.7727 26.065 46.5868ZM27.098 46.2814C27.0473 46.0958 26.8622 45.9886 26.6845 46.0407C26.5064 46.093 26.4028 46.2874 26.4534 46.4718C26.5044 46.6576 26.6895 46.7652 26.8679 46.7128C27.0456 46.6601 27.1489 46.4672 27.098 46.2814ZM26.488 44.6251C26.2183 43.844 25.7538 43.0857 25.2346 42.8018C24.9285 43.3413 24.9234 44.2726 25.1011 45.1012C24.3434 44.6896 23.4025 44.4432 22.7947 44.6404C23.0227 45.5663 24.3634 46.6233 25.3335 46.8707C25.3243 46.8505 25.3107 46.8346 25.3043 46.8123C25.2462 46.5988 25.345 46.3858 25.5234 46.2821C25.5129 46.2768 25.5058 46.2732 25.4962 46.2672C25.4282 46.3195 25.2526 46.4495 25.1134 46.4756C25.1134 46.4756 25.1344 46.3762 25.3967 46.2141C25.2397 46.1273 25.0661 46.0311 24.8795 45.9256C24.8 45.9876 24.6023 46.1298 24.4447 46.161C24.4447 46.161 24.4701 46.046 24.7684 45.8608C24.6896 45.8166 24.6108 45.7702 24.5282 45.7231C24.4494 45.6764 24.3763 45.635 24.304 45.5919C24.2173 45.6598 23.9792 45.8368 23.7892 45.8729C23.7892 45.8729 23.8191 45.7369 24.1776 45.5171C23.9979 45.4113 23.8395 45.3179 23.7026 45.2347C23.6315 45.2895 23.462 45.4127 23.3251 45.4385C23.3251 45.4385 23.3476 45.3388 23.6099 45.1759C23.3061 44.9862 23.1029 44.8478 22.9619 44.7285C23.111 44.789 23.338 44.8973 23.6652 45.0712C23.6601 44.754 23.7298 44.6821 23.7298 44.6821C23.7804 44.8149 23.7699 45.0301 23.762 45.1228C23.9037 45.1989 24.0638 45.2885 24.2422 45.3893C24.2343 44.9614 24.3291 44.8637 24.3291 44.8637C24.3978 45.0481 24.3814 45.3448 24.3706 45.4627C24.4443 45.5044 24.5177 45.5469 24.5979 45.5932C24.6791 45.6396 24.7566 45.6853 24.8344 45.7309C24.8289 45.3759 24.9085 45.2952 24.9085 45.2952C24.9652 45.4456 24.9536 45.6888 24.9451 45.7971C25.1293 45.9062 25.2998 46.0088 25.4524 46.1026C25.4483 45.7911 25.517 45.7196 25.517 45.7196C25.5672 45.8541 25.5564 46.0707 25.5492 46.1624C25.588 46.1865 25.6196 46.2074 25.655 46.2296C25.8812 46.1858 26.1065 46.3202 26.1711 46.556C26.1938 46.6385 26.1867 46.7196 26.1673 46.7968C26.2183 46.8006 26.2685 46.8006 26.3215 46.7868C26.3668 46.7712 26.4048 46.7458 26.4422 46.7196C26.4487 46.7196 26.4558 46.7167 26.4629 46.7167C26.4099 46.6654 26.3668 46.6041 26.343 46.5298C26.341 46.5302 26.3351 46.5376 26.3345 46.5376C26.3324 46.5369 26.3376 46.5235 26.3382 46.5196C26.3365 46.5157 26.3338 46.5128 26.3324 46.5075C26.2706 46.282 26.3848 46.0552 26.5839 45.96C26.6039 45.9196 26.6213 45.8838 26.6434 45.8385C26.5904 45.7645 26.4721 45.5872 26.4469 45.4453C26.4469 45.4453 26.541 45.4672 26.6953 45.7345C26.7775 45.5716 26.8707 45.39 26.9719 45.1968C26.9094 45.1087 26.7775 44.9101 26.7497 44.7501C26.7497 44.7501 26.858 44.7749 27.0334 45.0803C27.0765 44.9989 27.1197 44.9175 27.1642 44.8336C27.2091 44.7501 27.2508 44.6733 27.2923 44.5982C27.2243 44.503 27.0595 44.2595 27.0256 44.0658C27.0256 44.0658 27.1547 44.0967 27.364 44.4655C27.4646 44.2818 27.5563 44.1176 27.6379 43.9749C27.5849 43.8998 27.468 43.7239 27.4421 43.5835C27.4421 43.5835 27.539 43.6057 27.6946 43.879C27.8852 43.5512 28.0238 43.3353 28.1196 43.2015C28.0602 43.3802 27.9572 43.6089 27.7948 43.9374C28.0996 43.9314 28.1693 44.0054 28.1693 44.0054C28.0401 44.057 27.8328 44.0464 27.7442 44.0376C27.6708 44.1844 27.5835 44.3504 27.4846 44.5388C27.8998 44.5289 27.9936 44.6283 27.9936 44.6283C27.8145 44.7016 27.522 44.6821 27.4143 44.6715C27.3735 44.7469 27.3334 44.8226 27.2889 44.9055C27.243 44.9915 27.1992 45.0729 27.1547 45.1543C27.5019 45.149 27.5801 45.2319 27.5801 45.2319C27.4316 45.2923 27.1921 45.2782 27.0925 45.2694C26.9879 45.4619 26.8887 45.6396 26.7982 45.7989C27.1037 45.7929 27.172 45.8661 27.172 45.8661C27.0398 45.9199 26.8248 45.9065 26.7408 45.8987C26.7368 45.9065 26.733 45.9132 26.7283 45.9221C26.9383 45.9033 27.1383 46.0325 27.1985 46.2523C27.1992 46.2565 27.1985 46.2605 27.1992 46.2647C27.8733 45.4955 28.438 43.9346 28.1723 43.0486C27.5771 43.2082 26.9274 43.8896 26.488 44.6251ZM25.7718 44.5045C25.7952 44.5887 25.8183 44.6726 25.8435 44.7642C25.8694 44.8577 25.8928 44.9465 25.9166 45.0368C26.1544 44.7816 26.2655 44.7823 26.2655 44.7823C26.2033 44.9303 26.0311 45.0938 25.9509 45.1646C26.0069 45.3776 26.0579 45.5762 26.1027 45.7561C26.308 45.5366 26.4082 45.5313 26.4082 45.5313C26.3518 45.6637 26.1976 45.8077 26.1296 45.8676C26.2383 46.3171 26.2984 46.6151 26.2757 46.6219C26.2536 46.6286 26.1544 46.3426 26.0205 45.9026C25.938 45.8906 25.7256 45.8527 25.6081 45.7681C25.6081 45.7681 25.695 45.7168 25.9876 45.7936C25.9346 45.6166 25.8772 45.4188 25.817 45.2064C25.7185 45.1915 25.482 45.1476 25.3509 45.0527C25.3509 45.0527 25.446 44.9904 25.7823 45.0796C25.7565 44.9897 25.7321 44.8988 25.7066 44.8053C25.6814 44.7136 25.6583 44.6305 25.6363 44.5469C25.5292 44.5314 25.2404 44.4804 25.0817 44.3674C25.0817 44.3674 25.1952 44.2928 25.5968 44.4015C25.5421 44.1951 25.4949 44.0114 25.4548 43.8513C25.3672 43.8379 25.1623 43.7993 25.0494 43.718C25.0494 43.718 25.1358 43.667 25.4282 43.7431C25.3413 43.3845 25.2927 43.1367 25.274 42.9477C25.3379 43.1017 25.4252 43.3452 25.5387 43.7102C25.748 43.4854 25.849 43.4812 25.849 43.4812C25.7932 43.6124 25.641 43.7558 25.5717 43.8163C25.6202 43.9739 25.6733 44.1562 25.7307 44.3579C26.0154 44.0503 26.1486 44.051 26.1486 44.051C26.0721 44.2315 25.8584 44.4291 25.7718 44.5045ZM26.1731 40.5598C26.1181 39.7312 25.8693 38.87 25.4446 38.4488C25.0094 38.8807 24.7599 39.7741 24.7134 40.6225C24.0923 40.0102 23.252 39.5057 22.6153 39.5224C22.5919 40.4778 23.6048 41.8766 24.4732 42.3905C24.4695 42.3689 24.4603 42.3495 24.4603 42.3261C24.4603 42.1046 24.6115 41.9272 24.8089 41.878C24.8014 41.8706 24.795 41.8652 24.7871 41.8564C24.709 41.8879 24.5048 41.962 24.3634 41.9481C24.3634 41.9481 24.4106 41.8586 24.7056 41.7771C24.5772 41.6494 24.4358 41.5067 24.2839 41.3513C24.1905 41.3888 23.9635 41.4702 23.8042 41.4547C23.8042 41.4547 23.8589 41.3513 24.1936 41.259C24.1297 41.1924 24.0658 41.1265 23.9992 41.0579C23.9347 40.9906 23.8765 40.9287 23.8171 40.8675C23.7162 40.9078 23.4413 41.0115 23.2487 40.9921C23.2487 40.9921 23.3125 40.8688 23.7152 40.7599C23.5704 40.6076 23.443 40.4717 23.3339 40.3521C23.25 40.385 23.0543 40.4551 22.9167 40.4416C22.9167 40.4416 22.9639 40.3514 23.2592 40.2693C23.0162 40.001 22.8579 39.8091 22.7533 39.6544C22.8814 39.756 23.0706 39.9241 23.3397 40.1846C23.4179 39.8784 23.5052 39.8286 23.5052 39.8286C23.5174 39.9719 23.4515 40.1737 23.4192 40.2618C23.5354 40.3758 23.6659 40.5068 23.812 40.6548C23.9167 40.2409 24.0328 40.1744 24.0328 40.1744C24.0502 40.3708 23.9561 40.6515 23.9153 40.7624C23.9754 40.8228 24.0352 40.8848 24.0998 40.952C24.1657 41.02 24.2286 41.0869 24.2911 41.1528C24.3794 40.8094 24.4769 40.7538 24.4769 40.7538C24.4912 40.9152 24.4171 41.1453 24.3801 41.2469C24.5289 41.4051 24.6662 41.5524 24.7878 41.6862C24.8659 41.3849 24.9516 41.3357 24.9516 41.3357C24.9642 41.4798 24.8975 41.684 24.8653 41.7711C24.8962 41.8055 24.9214 41.8334 24.9499 41.866C25.1793 41.8872 25.3607 42.0819 25.3607 42.3261C25.3607 42.4114 25.3329 42.4875 25.2941 42.5569C25.3414 42.575 25.3909 42.5898 25.4446 42.5913C25.4922 42.5898 25.5357 42.575 25.5789 42.5608C25.5853 42.5622 25.5931 42.5615 25.5995 42.5644C25.5621 42.4996 25.537 42.4291 25.5329 42.3495C25.5306 42.3502 25.5234 42.3555 25.5227 42.3548C25.5214 42.3537 25.5292 42.3428 25.5306 42.3396C25.5306 42.3343 25.5285 42.3307 25.5285 42.3261C25.5285 42.0911 25.6977 41.9049 25.9135 41.8706C25.9444 41.8376 25.9702 41.8072 26.0025 41.7711C25.9716 41.684 25.9037 41.4798 25.9172 41.3357C25.9172 41.3357 26.0025 41.3849 26.08 41.6862C26.2027 41.5524 26.3389 41.4051 26.4874 41.2469C26.4507 41.1453 26.3766 40.9152 26.3912 40.7538C26.3912 40.7538 26.4894 40.8094 26.5774 41.1528C26.6406 41.0869 26.7025 41.02 26.7677 40.952C26.8336 40.8848 26.8923 40.8228 26.9525 40.7613C26.9118 40.6515 26.8176 40.3708 26.8349 40.1744C26.8349 40.1744 26.9525 40.2409 27.0565 40.6548C27.2019 40.5068 27.3334 40.3758 27.4499 40.2611C27.4173 40.1737 27.3504 39.9719 27.364 39.8286C27.364 39.8286 27.4503 39.8784 27.5284 40.1846C27.7979 39.9241 27.9878 39.756 28.1149 39.6544C28.0102 39.8091 27.8529 40.001 27.6093 40.2693C27.9039 40.3514 27.9521 40.4416 27.9521 40.4416C27.8142 40.4551 27.6178 40.385 27.5349 40.3521C27.4251 40.4717 27.2974 40.6076 27.1533 40.7599C27.5557 40.8688 27.6195 40.9921 27.6195 40.9921C27.4279 41.0115 27.1512 40.9078 27.0507 40.8675C26.9926 40.9287 26.9345 40.9906 26.87 41.0579C26.8034 41.1265 26.7388 41.1924 26.6749 41.2582C27.0099 41.3513 27.0636 41.4547 27.0636 41.4547C26.9046 41.4702 26.678 41.3888 26.5845 41.3513C26.4334 41.5067 26.2913 41.6494 26.1626 41.7771C26.4571 41.8586 26.505 41.9481 26.505 41.9481C26.363 41.962 26.1594 41.8879 26.082 41.8564C26.0749 41.8632 26.0698 41.8685 26.0627 41.8745C26.2699 41.9177 26.4286 42.0986 26.4286 42.3261C26.4286 42.3307 26.4262 42.3343 26.4262 42.3396C27.276 41.792 28.2294 40.4501 28.2059 39.5224C27.5919 39.5065 26.7871 39.9765 26.1731 40.5598ZM25.2513 42.3261C25.2513 42.1336 25.1011 41.9775 24.9156 41.9775C24.7307 41.9775 24.5809 42.1336 24.5809 42.3261C24.5809 42.519 24.7307 42.6751 24.9156 42.6751C25.1011 42.6751 25.2513 42.519 25.2513 42.3261ZM26.3247 42.3261C26.3247 42.1336 26.1744 41.9775 25.9889 41.9775C25.8047 41.9775 25.6543 42.1336 25.6543 42.3261C25.6543 42.519 25.8047 42.6751 25.9889 42.6751C26.1744 42.6751 26.3247 42.519 26.3247 42.3261ZM25.5149 40.2399C25.5156 40.3273 25.5156 40.4147 25.5156 40.5103C25.5156 40.6063 25.5156 40.6993 25.5149 40.7921C25.8102 40.6151 25.9172 40.6473 25.9172 40.6473C25.817 40.7726 25.609 40.8802 25.5136 40.9248C25.5122 41.146 25.5091 41.3524 25.5047 41.5382C25.7596 41.3849 25.8571 41.4083 25.8571 41.4083C25.7687 41.5195 25.5822 41.6143 25.5013 41.6525C25.4884 42.1156 25.4677 42.4189 25.4446 42.4189C25.4212 42.4189 25.4005 42.117 25.3876 41.6554C25.3107 41.6196 25.1157 41.5227 25.026 41.4083C25.026 41.4083 25.1235 41.3842 25.3844 41.541C25.3801 41.356 25.3767 41.1492 25.3746 40.9279C25.2832 40.8855 25.0674 40.7754 24.9659 40.6473C24.9659 40.6473 25.0739 40.6144 25.3742 40.7956C25.3736 40.7011 25.3729 40.6076 25.3729 40.5103C25.3729 40.4147 25.3729 40.3283 25.3736 40.2423C25.274 40.1967 25.01 40.0647 24.8867 39.9107C24.8867 39.9107 25.0158 39.871 25.3742 40.0898C25.3746 39.8756 25.3774 39.686 25.381 39.5206C25.2998 39.4834 25.114 39.3872 25.026 39.2771C25.026 39.2771 25.1235 39.2526 25.3844 39.4087C25.3939 39.0396 25.4137 38.7865 25.4446 38.5999C25.4653 38.7656 25.485 39.0254 25.4986 39.4087C25.7589 39.2526 25.8571 39.2771 25.8571 39.2771C25.7694 39.3872 25.5853 39.4813 25.5027 39.5206C25.5078 39.6852 25.5115 39.8756 25.5129 40.0876C25.869 39.871 25.9954 39.9107 25.9954 39.9107C25.8755 40.0622 25.6176 40.1914 25.5149 40.2399ZM26.1731 36.152C26.1181 35.3229 25.8693 34.4617 25.4446 34.0405C25.0094 34.4724 24.7599 35.3668 24.7134 36.2142C24.0923 35.6022 23.252 35.0974 22.6153 35.1144C22.5919 36.0698 23.6048 37.4684 24.4732 37.9827C24.4695 37.9611 24.4603 37.9416 24.4603 37.9179C24.4603 37.6966 24.6115 37.5189 24.8089 37.4697C24.8014 37.4623 24.795 37.457 24.7871 37.4481C24.709 37.48 24.5048 37.554 24.3634 37.5398C24.3634 37.5398 24.4106 37.4503 24.7056 37.3689C24.5772 37.2411 24.4358 37.0985 24.2839 36.9431C24.1905 36.9806 23.9635 37.0619 23.8042 37.0467C23.8042 37.0467 23.8589 36.9431 24.1936 36.851C24.1297 36.7841 24.0658 36.7189 23.9992 36.6489C23.9347 36.5823 23.8765 36.5204 23.8171 36.4592C23.7162 36.4995 23.4413 36.6018 23.2487 36.5831C23.2487 36.5831 23.3125 36.4606 23.7152 36.3516C23.5704 36.1997 23.443 36.0638 23.3339 35.9438C23.25 35.9763 23.0543 36.0468 22.9167 36.0327C22.9167 36.0327 22.9639 35.9431 23.2592 35.8613C23.0162 35.5927 22.8579 35.4008 22.7533 35.2462C22.8814 35.3477 23.0706 35.5162 23.3397 35.7764C23.4179 35.4695 23.5052 35.4206 23.5052 35.4206C23.5174 35.5636 23.4515 35.7657 23.4192 35.8539C23.5354 35.9675 23.6659 36.0988 23.812 36.2468C23.9167 35.833 24.0328 35.7664 24.0328 35.7664C24.0502 35.9629 23.9561 36.2432 23.9153 36.3537C23.9754 36.4149 24.0352 36.4769 24.0998 36.5441C24.1657 36.612 24.2286 36.6779 24.2911 36.7445C24.3794 36.4008 24.4769 36.3455 24.4769 36.3455C24.4912 36.5069 24.4171 36.737 24.3801 36.8386C24.5289 36.9954 24.6662 37.1441 24.7878 37.2768C24.8659 36.9766 24.9516 36.9275 24.9516 36.9275C24.9642 37.0716 24.8975 37.2762 24.8653 37.3628C24.8962 37.3972 24.9214 37.4255 24.9499 37.4577C25.1793 37.4793 25.3607 37.6743 25.3607 37.9179C25.3607 38.0035 25.3329 38.0792 25.2941 38.1486C25.3414 38.1667 25.3909 38.1815 25.4446 38.183C25.4922 38.1815 25.5357 38.1667 25.5789 38.1526C25.5853 38.1539 25.5931 38.1533 25.5995 38.1561C25.5621 38.0916 25.537 38.0208 25.5329 37.9416C25.5306 37.9423 25.5234 37.9476 25.5227 37.9469C25.5214 37.9455 25.5292 37.9349 25.5306 37.9299C25.5306 37.926 25.5285 37.9225 25.5285 37.9179C25.5285 37.6831 25.6977 37.4966 25.9135 37.4623C25.9444 37.4294 25.9702 37.3993 26.0025 37.3628C25.9716 37.2762 25.9037 37.0716 25.9172 36.9275C25.9172 36.9275 26.0025 36.9766 26.08 37.2768C26.2027 37.1441 26.3389 36.9954 26.4874 36.8386C26.4507 36.737 26.3766 36.5069 26.3912 36.3455C26.3912 36.3455 26.4894 36.4008 26.5774 36.7445C26.6406 36.6779 26.7025 36.612 26.7677 36.5441C26.8336 36.4769 26.8923 36.4149 26.9525 36.3537C26.9118 36.2432 26.8176 35.9629 26.8349 35.7664C26.8349 35.7664 26.9525 35.833 27.0565 36.2468C27.2019 36.0988 27.3334 35.9675 27.4499 35.8532C27.4173 35.7657 27.3504 35.5636 27.364 35.4206C27.364 35.4206 27.4503 35.4695 27.5284 35.7764C27.7979 35.5162 27.9878 35.3477 28.1149 35.2462C28.0102 35.4008 27.8529 35.5927 27.6093 35.8613C27.9039 35.9431 27.9521 36.0327 27.9521 36.0327C27.8142 36.0468 27.6178 35.9763 27.5349 35.9438C27.4251 36.0638 27.2974 36.1997 27.1533 36.3516C27.5557 36.4606 27.6195 36.5831 27.6195 36.5831C27.4279 36.6018 27.1512 36.4995 27.0507 36.4592C26.9926 36.5204 26.9345 36.5823 26.87 36.6489C26.8034 36.7189 26.7388 36.7841 26.6749 36.8503C27.0099 36.9431 27.0636 37.0467 27.0636 37.0467C26.9046 37.0619 26.678 36.9806 26.5845 36.9431C26.4334 37.0985 26.2913 37.2411 26.1626 37.3689C26.4571 37.4503 26.505 37.5398 26.505 37.5398C26.363 37.554 26.1594 37.48 26.082 37.4481C26.0749 37.4549 26.0698 37.4605 26.0627 37.4673C26.2699 37.5094 26.4286 37.6899 26.4286 37.9179C26.4286 37.9225 26.4262 37.926 26.4262 37.9299C27.276 37.3837 28.2294 36.0422 28.2059 35.1144C27.5919 35.0982 26.7871 35.5686 26.1731 36.152ZM25.2513 37.9179C25.2513 37.7256 25.1011 37.5696 24.9156 37.5696C24.7307 37.5696 24.5809 37.7256 24.5809 37.9179C24.5809 38.1111 24.7307 38.2672 24.9156 38.2672C25.1011 38.2672 25.2513 38.1111 25.2513 37.9179ZM26.3247 37.9179C26.3247 37.7256 26.1744 37.5696 25.9889 37.5696C25.8047 37.5696 25.6543 37.7256 25.6543 37.9179C25.6543 38.1111 25.8047 38.2672 25.9889 38.2672C26.1744 38.2672 26.3247 38.1111 26.3247 37.9179ZM25.5149 35.8316C25.5156 35.919 25.5156 36.0065 25.5156 36.102C25.5156 36.1983 25.5156 36.291 25.5149 36.3838C25.8102 36.2071 25.9172 36.2394 25.9172 36.2394C25.817 36.3643 25.609 36.4719 25.5136 36.5165C25.5122 36.7377 25.5091 36.9444 25.5047 37.1289C25.7596 36.9766 25.8571 37.0004 25.8571 37.0004C25.7687 37.1112 25.5822 37.206 25.5013 37.2446C25.4884 37.7073 25.4677 38.0106 25.4446 38.0106C25.4212 38.0106 25.4005 37.708 25.3876 37.2471C25.3107 37.2114 25.1157 37.1147 25.026 37.0004C25.026 37.0004 25.1235 36.976 25.3844 37.132C25.3801 36.9477 25.3767 36.7413 25.3746 36.5194C25.2832 36.4769 25.0674 36.3678 24.9659 36.2394C24.9659 36.2394 25.0739 36.2064 25.3742 36.3874C25.3736 36.2932 25.3729 36.1998 25.3729 36.102C25.3729 36.0065 25.3729 35.9205 25.3736 35.833C25.274 35.7884 25.01 35.6567 24.8867 35.5028C24.8867 35.5028 25.0158 35.4627 25.3742 35.6815C25.3746 35.4677 25.3774 35.278 25.381 35.1124C25.2998 35.0756 25.114 34.9793 25.026 34.8688C25.026 34.8688 25.1235 34.8441 25.3844 35.0012C25.3939 34.6306 25.4137 34.3782 25.4446 34.192C25.4653 34.3574 25.485 34.6171 25.4986 35.0012C25.7589 34.8448 25.8571 34.8688 25.8571 34.8688C25.7694 34.9793 25.5853 35.0734 25.5027 35.1124C25.5078 35.2773 25.5115 35.4677 25.5129 35.6794C25.869 35.4628 25.9954 35.5028 25.9954 35.5028C25.8755 35.6546 25.6176 35.7831 25.5149 35.8316ZM26.1731 31.7882C26.1181 30.9592 25.8693 30.0981 25.4446 29.6769C25.0094 30.1076 24.7599 31.0024 24.7134 31.8495C24.0923 31.2378 23.252 30.7338 22.6153 30.75C22.5919 31.7054 23.6048 33.1046 24.4732 33.6186C24.4695 33.5967 24.4603 33.5772 24.4603 33.5542C24.4603 33.333 24.6115 33.1553 24.8089 33.106C24.8014 33.0987 24.795 33.0926 24.7871 33.0844C24.709 33.1163 24.5048 33.1903 24.3634 33.1761C24.3634 33.1761 24.4106 33.0859 24.7056 33.0045C24.5772 32.8774 24.4358 32.7341 24.2839 32.5794C24.1905 32.6162 23.9635 32.6983 23.8042 32.6823C23.8042 32.6823 23.8589 32.5794 24.1936 32.4866C24.1297 32.4204 24.0658 32.3546 23.9992 32.2845C23.9347 32.218 23.8765 32.1568 23.8171 32.0948C23.7162 32.1358 23.4413 32.2381 23.2487 32.2194C23.2487 32.2194 23.3125 32.0969 23.7152 31.9879C23.5704 31.8354 23.443 31.7001 23.3339 31.5801C23.25 31.613 23.0543 31.6831 22.9167 31.669C22.9167 31.669 22.9639 31.5787 23.2592 31.4973C23.0162 31.229 22.8579 31.0364 22.7533 30.8825C22.8814 30.9841 23.0706 31.1522 23.3397 31.4127C23.4179 31.1065 23.5052 31.0566 23.5052 31.0566C23.5174 31.1992 23.4515 31.402 23.4192 31.4902C23.5354 31.6031 23.6659 31.7348 23.812 31.8831C23.9167 31.4693 24.0328 31.4024 24.0328 31.4024C24.0502 31.5989 23.9561 31.8795 23.9153 31.9893C23.9754 32.0512 24.0352 32.1125 24.0998 32.1797C24.1657 32.2484 24.2286 32.3142 24.2911 32.3801C24.3794 32.0371 24.4769 31.9819 24.4769 31.9819C24.4912 32.1433 24.4171 32.3726 24.3801 32.4742C24.5289 32.6318 24.6662 32.7797 24.7878 32.9131C24.8659 32.613 24.9516 32.5638 24.9516 32.5638C24.9642 32.7079 24.8975 32.9124 24.8653 32.9991C24.8962 33.0328 24.9214 33.0611 24.9499 33.0941C25.1793 33.1157 25.3607 33.3099 25.3607 33.5542C25.3607 33.6395 25.3329 33.7149 25.2941 33.7843C25.3414 33.8023 25.3909 33.8179 25.4446 33.8193C25.4922 33.8179 25.5357 33.8023 25.5789 33.7878C25.5853 33.7903 25.5931 33.7896 25.5995 33.7917C25.5621 33.7269 25.537 33.6572 25.5329 33.5772C25.5306 33.5779 25.5234 33.5839 25.5227 33.5832C25.5214 33.581 25.5292 33.5704 25.5306 33.5662C25.5306 33.5623 25.5285 33.5581 25.5285 33.5542C25.5285 33.3195 25.6977 33.1329 25.9135 33.0987C25.9444 33.0643 25.9702 33.0356 26.0025 32.9991C25.9716 32.9124 25.9037 32.7079 25.9172 32.5638C25.9172 32.5638 26.0025 32.613 26.08 32.9131C26.2027 32.7797 26.3389 32.6318 26.4874 32.4742C26.4507 32.3726 26.3766 32.1433 26.3912 31.9819C26.3912 31.9819 26.4894 32.0371 26.5774 32.3801C26.6406 32.3142 26.7025 32.2484 26.7677 32.1797C26.8336 32.1125 26.8923 32.0512 26.9525 31.9893C26.9118 31.8795 26.8176 31.5989 26.8349 31.4024C26.8349 31.4024 26.9525 31.4693 27.0565 31.8831C27.2019 31.7348 27.3334 31.6031 27.4499 31.4895C27.4173 31.402 27.3504 31.1992 27.364 31.0566C27.364 31.0566 27.4503 31.1065 27.5284 31.4127C27.7979 31.1522 27.9878 30.9841 28.1149 30.8825C28.0102 31.0364 27.8529 31.229 27.6093 31.4973C27.9039 31.5787 27.9521 31.669 27.9521 31.669C27.8142 31.6831 27.6178 31.613 27.5349 31.5801C27.4251 31.7001 27.2974 31.8354 27.1533 31.9879C27.5557 32.0969 27.6195 32.2194 27.6195 32.2194C27.4279 32.2381 27.1512 32.1358 27.0507 32.0948C26.9926 32.1568 26.9345 32.218 26.87 32.2845C26.8034 32.3546 26.7388 32.4204 26.6749 32.4866C27.0099 32.5794 27.0636 32.6823 27.0636 32.6823C26.9046 32.6983 26.678 32.6162 26.5845 32.5794C26.4334 32.7341 26.2913 32.8774 26.1626 33.0045C26.4571 33.0859 26.505 33.1761 26.505 33.1761C26.363 33.1903 26.1594 33.1163 26.082 33.0844C26.0749 33.0912 26.0698 33.0961 26.0627 33.1029C26.2699 33.145 26.4286 33.3262 26.4286 33.5542C26.4286 33.5588 26.4262 33.5623 26.4262 33.5662C27.276 33.0193 28.2294 31.6785 28.2059 30.75C27.5919 30.7345 26.7871 31.2049 26.1731 31.7882ZM25.2513 33.5542C25.2513 33.3617 25.1011 33.2052 24.9156 33.2052C24.7307 33.2052 24.5809 33.3617 24.5809 33.5542C24.5809 33.7468 24.7307 33.9032 24.9156 33.9032C25.1011 33.9032 25.2513 33.7468 25.2513 33.5542ZM26.3247 33.5542C26.3247 33.3617 26.1744 33.2052 25.9889 33.2052C25.8047 33.2052 25.6543 33.3617 25.6543 33.5542C25.6543 33.7468 25.8047 33.9032 25.9889 33.9032C26.1744 33.9032 26.3247 33.7468 26.3247 33.5542ZM25.5149 31.4665C25.5156 31.5546 25.5156 31.6421 25.5156 31.7384C25.5156 31.8346 25.5156 31.9267 25.5149 32.0194C25.8102 31.8427 25.9172 31.8757 25.9172 31.8757C25.817 31.9999 25.609 32.1082 25.5136 32.1528C25.5122 32.3741 25.5091 32.58 25.5047 32.7648C25.7596 32.613 25.8571 32.6356 25.8571 32.6356C25.7687 32.7475 25.5822 32.8423 25.5013 32.8798C25.4884 33.3436 25.4677 33.6469 25.4446 33.6469C25.4212 33.6469 25.4005 33.345 25.3876 32.8834C25.3107 32.847 25.1157 32.751 25.026 32.6356C25.026 32.6356 25.1235 32.6116 25.3844 32.7684C25.3801 32.5833 25.3767 32.3776 25.3746 32.1546C25.2832 32.1125 25.0674 32.0034 24.9659 31.8757C24.9659 31.8757 25.0739 31.842 25.3742 32.0236C25.3736 31.9295 25.3729 31.8353 25.3729 31.7384C25.3729 31.6421 25.3729 31.5568 25.3736 31.4693C25.274 31.424 25.01 31.2931 24.8867 31.1387C24.8867 31.1387 25.0158 31.0991 25.3742 31.3178C25.3746 31.104 25.3774 30.9143 25.381 30.7486C25.2998 30.7107 25.114 30.6155 25.026 30.5044C25.026 30.5044 25.1235 30.4797 25.3844 30.6368C25.3939 30.2676 25.4137 30.0146 25.4446 29.8283C25.4653 29.9936 25.485 30.2535 25.4986 30.6368C25.7589 30.4807 25.8571 30.5044 25.8571 30.5044C25.7694 30.6155 25.5853 30.7097 25.5027 30.7486C25.5078 30.9136 25.5115 31.104 25.5129 31.3143C25.869 31.0991 25.9954 31.1387 25.9954 31.1387C25.8755 31.2902 25.6176 31.4194 25.5149 31.4665ZM25.1035 34.1591C25.0338 34.1878 24.9587 34.2048 24.8812 34.2048C24.5958 34.2048 24.3492 34.003 24.2724 33.7237C23.6377 33.3167 22.9561 32.5086 22.6055 31.7072L22.1407 31.5122C22.2123 31.8272 22.2749 32.1185 22.3299 32.3903C22.3846 32.6633 22.4339 32.9164 22.4791 33.1525C22.3632 33.2636 22.2585 33.3645 22.1607 33.4579C21.965 33.6462 21.7903 33.809 21.5953 33.9846C21.4978 34.0728 21.3959 34.1644 21.2817 34.2639L24.6689 35.1831C24.7651 34.8055 24.9078 34.4444 25.1035 34.1591ZM25.0634 38.5596C25.0073 38.5773 24.9499 38.5886 24.8911 38.5886C24.6057 38.5886 24.3583 38.3876 24.2819 38.1076C24.003 37.9292 23.7162 37.6722 23.4515 37.3742L20.8359 37.2081C20.8961 37.3044 20.9498 37.3904 20.9973 37.468C21.0942 37.622 21.1686 37.7423 21.2365 37.8542C21.2705 37.9086 21.3035 37.9611 21.3357 38.0142C21.4662 38.2262 21.6008 38.4407 21.8546 38.8431H24.9085C24.955 38.7426 25.0073 38.6491 25.0634 38.5596ZM47.716 53.5146L46.7456 53.5377L47.328 52.903C48.1238 53.4077 49.2963 51.8354 49.0969 50.7629C48.0592 50.6022 46.603 51.8917 47.1221 52.6984L46.5408 53.3316L46.5163 52.2241C47.4412 52.0134 47.2053 50.0189 46.3315 49.4037C46.3301 49.4037 46.3301 49.4037 46.3301 49.4037C45.4932 50.0504 45.3356 52.0177 46.2316 52.2248L46.251 53.1008L45.638 52.4906C45.5806 52.4333 45.4906 52.4354 45.4365 52.4945C45.3821 52.5547 45.3842 52.6474 45.4402 52.7051L46.4181 53.6796L46.9352 54.1942C47.0096 54.1316 47.0841 54.0683 47.1581 54.0052L46.9804 53.8289L47.3725 53.8194C47.488 53.7185 47.6032 53.6169 47.716 53.5146ZM48.3412 52.9345C48.0973 53.0223 47.9117 53.1769 47.8363 53.4063C48.0062 53.2509 48.174 53.0934 48.3412 52.9345ZM45.8674 51.5183C45.8674 51.5183 45.9784 51.4814 46.2934 51.6659C46.2843 51.5271 46.2767 51.3686 46.271 51.1933C46.1721 51.1512 45.902 51.0266 45.7756 50.8733C45.7756 50.8733 45.902 50.8309 46.2656 51.0415C46.2632 50.9788 46.2618 50.9176 46.2598 50.8524C46.2581 50.7381 46.2561 50.6344 46.2553 50.536C46.1687 50.4978 45.9894 50.4089 45.9013 50.3035C45.9013 50.3035 45.993 50.2723 46.254 50.4203C46.251 49.9735 46.2646 49.7134 46.3036 49.535C46.3362 49.6911 46.3688 49.9622 46.3889 50.4157C46.6403 50.2581 46.732 50.2843 46.732 50.2843C46.6505 50.3923 46.4789 50.4871 46.3936 50.5307C46.3974 50.6298 46.4008 50.7346 46.4032 50.8504C46.4045 50.9123 46.4059 50.9735 46.4066 51.034C46.7552 50.8121 46.8829 50.8475 46.8829 50.8475C46.7657 51.0029 46.5091 51.1384 46.4079 51.188C46.4096 51.3629 46.4079 51.5218 46.4045 51.6598C46.7072 51.4652 46.8184 51.497 46.8184 51.497C46.7134 51.6347 46.4807 51.7547 46.4015 51.7929C46.3937 52.0237 46.3794 52.1664 46.36 52.1678C46.3407 52.1678 46.3199 52.0259 46.3026 51.7976C46.2275 51.766 45.9809 51.6549 45.8674 51.5183ZM47.8357 52.0379C47.7949 51.9356 47.6885 51.6475 47.7024 51.445C47.7024 51.445 47.8221 51.509 47.9352 51.9253C47.9757 51.8804 48.0164 51.8354 48.0599 51.789C48.1367 51.7055 48.205 51.6316 48.2709 51.5608C48.2365 51.4705 48.1696 51.2754 48.1792 51.1356C48.1792 51.1356 48.2645 51.1887 48.3467 51.48C48.6494 51.1604 48.8353 50.9862 48.9851 50.8893C48.9019 51.0227 48.7404 51.2401 48.4465 51.5756C48.7255 51.6489 48.7799 51.7345 48.7799 51.7345C48.6487 51.7504 48.4628 51.6913 48.3725 51.6591C48.3083 51.7324 48.2399 51.8078 48.1632 51.8917C48.1211 51.9377 48.0803 51.9812 48.0392 52.0244C48.4377 52.1239 48.504 52.2435 48.504 52.2435C48.3147 52.2665 48.0416 52.1745 47.9369 52.1342C47.819 52.2576 47.7109 52.3696 47.6148 52.4651C47.9603 52.5511 48.0177 52.6542 48.0177 52.6542C47.8493 52.6758 47.6039 52.5887 47.5217 52.5579C47.361 52.7133 47.2537 52.8043 47.239 52.7908H47.2376C47.224 52.7766 47.3066 52.6616 47.4483 52.4878C47.417 52.4106 47.3178 52.1501 47.3301 51.9706C47.3301 51.9706 47.4334 52.0251 47.5323 52.3876C47.6185 52.2839 47.7215 52.1657 47.8357 52.0379ZM49.0038 53.2092C49.0402 53.1561 49.0796 53.1076 49.1203 53.0704C49.1203 53.0704 49.139 53.1338 49.0853 53.2959L49.3436 53.5723L49.4438 53.5712C49.4798 53.4824 49.5658 53.2934 49.6674 53.2024C49.6674 53.2024 49.6956 53.2987 49.5542 53.5698C49.9824 53.5663 50.2331 53.5811 50.4047 53.6222C50.2549 53.6552 49.9945 53.6895 49.5593 53.7103C49.6045 53.7886 49.6337 53.8523 49.6531 53.9036L49.8699 54.1355C50.1393 53.9985 50.3731 53.8113 50.5216 53.5811C50.1495 53.0583 49.3235 52.79 48.6783 52.8598L49.0038 53.2092ZM53.097 49.1913C52.2272 48.5683 50.3595 49.0713 50.5106 50.0444L49.5121 50.4269L49.8641 49.632C50.7754 49.839 51.3941 47.9545 50.8705 47.008C49.839 47.2066 48.8645 48.9202 49.6066 49.5066L49.2531 50.3035L48.8852 49.2632C49.6935 48.7513 48.8502 46.9447 47.8306 46.6594V46.6583C47.8306 46.6594 47.8306 46.6594 47.8306 46.6594C47.2397 47.5535 47.7045 49.4678 48.6164 49.3609L48.9076 50.1827L48.1374 49.8121C48.0657 49.7778 47.9817 49.8108 47.9481 49.8847C47.9151 49.9594 47.9467 50.0475 48.0185 50.0819L49.2461 50.6727L50.4757 51.2634C50.5467 51.2977 50.6313 51.2655 50.6642 51.1909C50.6965 51.1162 50.6656 51.028 50.5946 50.9944L49.8247 50.6234L50.614 50.3208C51.1274 51.114 52.8266 50.2408 53.097 49.1913ZM48.0521 48.8164C48.0521 48.8164 48.1445 48.7432 48.5009 48.8111C48.4493 48.6833 48.3922 48.5358 48.3317 48.3726C48.225 48.3659 47.9304 48.3389 47.7626 48.2373C47.7626 48.2373 47.8706 48.1531 48.2794 48.2299C48.2579 48.1719 48.2372 48.1141 48.2155 48.053C48.1778 47.9453 48.1438 47.8476 48.1122 47.7563C48.0191 47.7489 47.8207 47.7252 47.7052 47.6551C47.7052 47.6551 47.7827 47.5945 48.0752 47.6473C47.9331 47.2253 47.8649 46.9744 47.8458 46.7921C47.9247 46.9288 48.0409 47.174 48.2012 47.596C48.3898 47.3627 48.4846 47.356 48.4846 47.356C48.4414 47.4855 48.309 47.6338 48.2414 47.7036C48.276 47.796 48.3117 47.8933 48.3497 48.0023C48.3704 48.0614 48.3905 48.1181 48.4105 48.1754C48.6708 47.8469 48.8037 47.8377 48.8037 47.8377C48.7404 48.0239 48.5404 48.2391 48.4601 48.3198C48.5152 48.4848 48.5641 48.6356 48.6042 48.7673C48.8302 48.4809 48.944 48.4734 48.944 48.4734C48.8883 48.6394 48.7055 48.832 48.6423 48.8947C48.7069 49.1159 48.7378 49.2564 48.7197 49.2632C48.701 49.2699 48.6385 49.1421 48.5505 48.9329C48.47 48.929 48.2012 48.9067 48.0521 48.8164ZM50.0748 48.6409C50.0045 48.5574 49.8138 48.322 49.7649 48.1255C49.7649 48.1255 49.8971 48.1457 50.1342 48.5018C50.1594 48.4444 50.1831 48.3878 50.2096 48.3294C50.2562 48.2243 50.2983 48.1315 50.3381 48.042C50.2776 47.9687 50.153 47.8066 50.1186 47.6714C50.1186 47.6714 50.2148 47.693 50.3853 47.9404C50.5715 47.5361 50.6928 47.3082 50.8039 47.1656C50.7669 47.3203 50.6819 47.58 50.508 47.997C50.7961 47.9722 50.8736 48.0345 50.8736 48.0345C50.754 48.094 50.5603 48.1014 50.4655 48.1007C50.4268 48.1921 50.3853 48.2869 50.3388 48.3921C50.3136 48.449 50.2885 48.5043 50.264 48.5587C50.6721 48.5184 50.7723 48.6101 50.7723 48.6101C50.599 48.6954 50.3123 48.6993 50.2008 48.6982C50.1284 48.8554 50.0598 48.9974 49.999 49.1198C50.353 49.0844 50.4396 49.1629 50.4396 49.1629C50.2871 49.2398 50.0275 49.2405 49.9405 49.2384C49.8362 49.4401 49.7642 49.5626 49.7452 49.5551C49.7282 49.5456 49.7686 49.4104 49.8488 49.198C49.7951 49.1347 49.6201 48.9222 49.5763 48.7478C49.5763 48.7478 49.6905 48.7648 49.8964 49.0748C49.947 48.9471 50.0068 48.8001 50.0748 48.6409ZM51.0564 49.484C51.0564 49.484 51.126 49.5807 51.0608 49.9516C51.1834 49.8981 51.3251 49.839 51.4814 49.776C51.4886 49.6649 51.5144 49.358 51.6119 49.1832C51.6119 49.1832 51.6917 49.295 51.619 49.7215C51.6737 49.6992 51.7298 49.6776 51.7882 49.6546C51.8922 49.615 51.985 49.58 52.0743 49.547C52.0808 49.4504 52.1025 49.243 52.1698 49.1226C52.1698 49.1226 52.2279 49.204 52.1783 49.5088C52.583 49.3609 52.8239 49.2886 52.9982 49.2699C52.868 49.352 52.6322 49.4731 52.2265 49.6394C52.4514 49.8359 52.4582 49.9353 52.4582 49.9353C52.3325 49.8904 52.1906 49.7516 52.1232 49.6816C52.0349 49.7173 51.9412 49.7552 51.8378 49.7948C51.7804 49.8164 51.7253 49.8373 51.6707 49.8578C51.9863 50.1289 51.9948 50.267 51.9948 50.267C51.8158 50.2012 51.6092 49.9931 51.5317 49.9098C51.3734 49.9668 51.2287 50.0182 51.1029 50.0599C51.3774 50.2953 51.3846 50.4135 51.3846 50.4135C51.2255 50.3551 51.0407 50.1654 50.9803 50.0996C50.7689 50.1668 50.634 50.199 50.6262 50.1803C50.6204 50.1608 50.7424 50.0953 50.9432 50.004C50.948 49.9197 50.9691 49.6402 51.0564 49.484ZM54.1381 44.3147C53.1341 43.9763 51.4825 45.0138 51.8932 45.9019L51.0407 46.566L51.161 45.698C52.0896 45.6262 52.1671 43.6365 51.4063 42.8851C50.4727 43.3831 50.0074 45.3132 50.8786 45.6556L50.7594 46.5234L50.122 45.6353C50.756 44.9055 49.4523 43.4248 48.3976 43.4535H48.3969C48.0759 44.4871 49.0459 46.1833 49.8906 45.8099L50.3938 46.5107L49.5556 46.3858C49.4775 46.3731 49.4051 46.4293 49.3939 46.51C49.383 46.5914 49.436 46.6668 49.5148 46.6789L50.8535 46.8795L52.1929 47.0813C52.2711 47.0923 52.3434 47.0364 52.3543 46.9549C52.3655 46.8728 52.3112 46.7981 52.2337 46.7868L51.3941 46.6608L52.0679 46.1366C52.777 46.7429 54.166 45.4007 54.1381 44.3147ZM49.1995 45.4552C49.1995 45.4552 49.2695 45.3582 49.629 45.3164C49.5451 45.2103 49.4495 45.0853 49.347 44.9473C49.243 44.972 48.9535 45.034 48.7643 44.9855C48.7643 44.9855 48.8451 44.8739 49.2583 44.8262C49.2216 44.777 49.1855 44.7278 49.1485 44.6754C49.0816 44.5827 49.0232 44.4998 48.9671 44.4213C48.876 44.4414 48.6796 44.4789 48.5492 44.4454C48.5492 44.4454 48.608 44.3646 48.9018 44.3281C48.6501 43.9664 48.5162 43.7455 48.4493 43.5774C48.5614 43.6843 48.7398 43.885 49.0092 44.2415C49.1254 43.9622 49.2151 43.9271 49.2151 43.9271C49.2093 44.0638 49.122 44.2457 49.0775 44.3324C49.1356 44.4103 49.1964 44.4938 49.2631 44.5858C49.2991 44.6372 49.334 44.686 49.368 44.7352C49.5284 44.3423 49.6517 44.2938 49.6517 44.2938C49.6432 44.4924 49.5104 44.7575 49.4553 44.8591C49.5536 45.0004 49.6412 45.1303 49.7156 45.2446C49.8539 44.9034 49.9616 44.862 49.9616 44.862C49.9534 45.0375 49.8305 45.2761 49.788 45.355C49.91 45.5472 49.978 45.6732 49.963 45.6845C49.9473 45.6973 49.8519 45.5939 49.7105 45.4187C49.631 45.4389 49.368 45.4977 49.1995 45.4552ZM51.0907 44.6861C51.0003 44.6269 50.754 44.4573 50.6527 44.2839C50.6527 44.2839 50.7859 44.2644 51.11 44.5349C51.1179 44.4729 51.126 44.4117 51.1345 44.3473C51.1505 44.2333 51.1654 44.131 51.1791 44.0344C51.1009 43.9816 50.9374 43.8627 50.8671 43.7442C50.8671 43.7442 50.966 43.7356 51.196 43.9218C51.2643 43.4797 51.3187 43.2249 51.3856 43.0546C51.3927 43.2142 51.3825 43.4885 51.3302 43.9402C51.599 43.8312 51.6907 43.8673 51.6907 43.8673C51.5925 43.9597 51.4083 44.0241 51.3173 44.0524C51.3058 44.1509 51.2922 44.2542 51.2759 44.3692C51.2681 44.4312 51.2585 44.491 51.2494 44.5508C51.6299 44.3916 51.7499 44.4489 51.7499 44.4489C51.6092 44.582 51.3353 44.6722 51.2276 44.7037C51.2011 44.8761 51.1746 45.0318 51.1501 45.1678C51.4793 45.028 51.5833 45.0779 51.5833 45.0779C51.4579 45.1961 51.2106 45.2743 51.126 45.2991C51.0815 45.5231 51.0455 45.6612 51.0261 45.6605C51.0074 45.6569 51.0085 45.5143 51.0271 45.287C50.9581 45.2425 50.7329 45.0913 50.6418 44.9366C50.6418 44.9366 50.7567 44.9189 51.039 45.1543C51.0526 45.0174 51.0693 44.8591 51.0907 44.6861ZM52.2629 45.2021C52.2629 45.2021 52.3557 45.2743 52.3951 45.6488C52.4974 45.5614 52.6173 45.4627 52.7498 45.355C52.7264 45.2467 52.6669 44.9458 52.7127 44.7487C52.7127 44.7487 52.8201 44.8315 52.8667 45.2626C52.9136 45.2244 52.9608 45.1869 53.0111 45.149C53.0998 45.0796 53.1799 45.0181 53.2554 44.96C53.2353 44.8651 53.2 44.6598 53.2315 44.5246C53.2315 44.5246 53.3091 44.5852 53.3451 44.8927C53.6913 44.6297 53.903 44.4895 54.065 44.4198C53.9625 44.537 53.7701 44.7225 53.4273 45.0039C53.6964 45.125 53.73 45.2184 53.73 45.2184C53.5975 45.2123 53.4233 45.1214 53.34 45.0743C53.2646 45.1356 53.185 45.1989 53.0964 45.2676C53.0481 45.3058 53.0008 45.3416 52.9536 45.3776C53.3301 45.544 53.3767 45.6739 53.3767 45.6739C53.1867 45.6637 52.9319 45.526 52.8344 45.468C52.6989 45.5709 52.5741 45.6622 52.4647 45.7398C52.7923 45.8839 52.8323 45.9961 52.8323 45.9961C52.6638 45.9876 52.4351 45.8595 52.3584 45.8145C52.1735 45.9415 52.0536 46.0123 52.042 45.9968C52.0302 45.9808 52.129 45.881 52.2969 45.7338C52.2775 45.6516 52.2221 45.3776 52.2629 45.2021ZM49.3599 41.5113C49.3599 41.5113 49.4146 41.4051 49.7652 41.311C49.6677 41.2172 49.5563 41.1082 49.4353 40.9857C49.3364 41.0267 49.0582 41.1298 48.8652 41.1117C48.8652 41.1117 48.929 40.9885 49.3307 40.8794C49.2889 40.8366 49.2461 40.7928 49.2022 40.7471C49.1241 40.6657 49.0537 40.5917 48.9885 40.5216C48.9012 40.556 48.712 40.6218 48.5784 40.6083C48.5784 40.6083 48.6249 40.5202 48.911 40.4395C48.612 40.1181 48.4499 39.9203 48.3596 39.7634C48.486 39.853 48.6895 40.025 49.0044 40.3379C49.082 40.0438 49.1662 39.996 49.1662 39.996C49.1784 40.1333 49.1176 40.3252 49.0847 40.4179C49.1536 40.4866 49.225 40.5598 49.3035 40.6413C49.3463 40.6865 49.3871 40.7294 49.4282 40.7733C49.5322 40.3602 49.6483 40.2948 49.6483 40.2948C49.6667 40.4919 49.5709 40.7747 49.5315 40.883C49.6477 41.0087 49.7523 41.1237 49.8423 41.226C49.9313 40.8675 50.0319 40.8101 50.0319 40.8101C50.0483 40.9857 49.9599 41.2402 49.928 41.3247C50.0754 41.4971 50.16 41.6108 50.1464 41.6249C50.1322 41.6391 50.0245 41.5524 49.8597 41.3995C49.7846 41.4306 49.5322 41.5279 49.3599 41.5113ZM51.1267 40.4685C51.0292 40.4232 50.7611 40.2922 50.6377 40.1368C50.6377 40.1368 50.7666 40.0965 51.1243 40.3149C51.1243 40.2536 51.1236 40.1921 51.1236 40.1273C51.1236 40.0116 51.1243 39.9086 51.1246 39.8112C51.0401 39.7702 50.8613 39.6774 50.7761 39.5694C50.7761 39.5694 50.8722 39.5468 51.1267 39.6969C51.1331 39.2495 51.1518 38.989 51.1946 38.8106C51.2242 38.9674 51.2501 39.2399 51.2616 39.6955C51.5117 39.5475 51.6071 39.5694 51.6071 39.5694C51.5232 39.6753 51.3503 39.7666 51.263 39.8084C51.2657 39.9075 51.2663 40.0116 51.2663 40.1273C51.2663 40.1907 51.2657 40.2512 51.2657 40.3124C51.619 40.0973 51.7468 40.1368 51.7468 40.1368C51.6255 40.2894 51.3656 40.4187 51.263 40.4657C51.2613 40.6398 51.2565 40.7988 51.2501 40.9368C51.5569 40.7496 51.6672 40.7839 51.6672 40.7839C51.5596 40.9191 51.3251 41.0342 51.2449 41.0699C51.232 41.2993 51.2147 41.4413 51.1954 41.4433C51.1946 41.4433 51.1946 41.4433 51.1946 41.4441C51.1753 41.4433 51.1576 41.3007 51.1447 41.0734C51.0713 41.0401 50.827 40.9227 50.7159 40.7839C50.7159 40.7839 50.8277 40.7489 51.1382 40.94C51.1331 40.8027 51.1287 40.6434 51.1267 40.4685ZM52.357 40.8055C52.357 40.8055 52.459 40.8629 52.5483 41.2281C52.638 41.1258 52.7433 41.0115 52.8602 40.8848C52.8215 40.7814 52.7219 40.4919 52.74 40.2902C52.74 40.2902 52.8575 40.3567 52.9622 40.7754C53.0046 40.7315 53.0461 40.6873 53.0899 40.6413C53.168 40.5598 53.2387 40.488 53.3057 40.4186C53.2727 40.328 53.2102 40.1308 53.2224 39.9914C53.2224 39.9914 53.3077 40.0399 53.3852 40.3379C53.6934 40.0264 53.8829 39.8576 54.0335 39.7634C53.9481 39.8951 53.783 40.1072 53.482 40.4363C53.765 40.5163 53.8109 40.6045 53.8109 40.6045C53.6797 40.6172 53.4949 40.5538 53.4059 40.5195C53.3393 40.591 53.2697 40.665 53.1909 40.7471C53.1477 40.7921 53.1062 40.8338 53.0648 40.877C53.4606 40.9857 53.5241 41.1071 53.5241 41.1071C53.3349 41.1259 53.0634 41.0264 52.9591 40.9846C52.8381 41.1064 52.7284 41.2154 52.6302 41.3082C52.9744 41.4016 53.0294 41.5074 53.0294 41.5074C52.8609 41.5233 52.6166 41.4313 52.5361 41.3984C52.3692 41.5509 52.2609 41.6391 52.2466 41.6249C52.233 41.6108 52.3176 41.4979 52.4631 41.3262C52.4332 41.249 52.3404 40.9857 52.357 40.8055ZM49.3599 37.1147C49.3599 37.1147 49.4146 37.0082 49.7652 36.914C49.6677 36.8212 49.5563 36.7123 49.4353 36.5898C49.3364 36.6301 49.0582 36.7339 48.8652 36.7158C48.8652 36.7158 48.929 36.5926 49.3307 36.4829C49.2889 36.4397 49.2461 36.3969 49.2022 36.3508C49.1241 36.2694 49.0537 36.1954 48.9885 36.1257C48.9012 36.1594 48.712 36.2252 48.5784 36.2117C48.5784 36.2117 48.6249 36.1236 48.911 36.0429C48.612 35.7226 48.4499 35.5247 48.3596 35.3672C48.486 35.456 48.6895 35.6291 49.0044 35.9413C49.082 35.6479 49.1662 35.5994 49.1662 35.5994C49.1784 35.7367 49.1176 35.9293 49.0847 36.022C49.1536 36.0907 49.225 36.1632 49.3035 36.2461C49.3463 36.2904 49.3871 36.3335 49.4282 36.3767C49.5322 35.9639 49.6483 35.8981 49.6483 35.8981C49.6667 36.0953 49.5709 36.3785 49.5315 36.4861C49.6477 36.6121 49.7523 36.7278 49.8423 36.8294C49.9313 36.4716 50.0319 36.4142 50.0319 36.4142C50.0483 36.5898 49.9599 36.8436 49.928 36.9281C50.0754 37.1005 50.16 37.2149 50.1464 37.229C50.1322 37.2432 50.0245 37.1558 49.8597 37.0035C49.7846 37.034 49.5322 37.132 49.3599 37.1147ZM51.1267 36.0719C51.0292 36.0281 50.7611 35.896 50.6377 35.7399C50.6377 35.7399 50.7666 35.7003 51.1243 35.9197C51.1243 35.8571 51.1236 35.7958 51.1236 35.7307C51.1236 35.6163 51.1243 35.512 51.1246 35.4146C51.0401 35.3739 50.8613 35.2805 50.7761 35.1736C50.7761 35.1736 50.8722 35.1502 51.1267 35.3013C51.1331 34.8525 51.1518 34.5924 51.1946 34.4154C51.2242 34.5708 51.2501 34.844 51.2616 35.2989C51.5117 35.1505 51.6071 35.1736 51.6071 35.1736C51.5232 35.2797 51.3503 35.3707 51.263 35.4125C51.2657 35.5112 51.2663 35.615 51.2663 35.7307C51.2663 35.7951 51.2657 35.855 51.2657 35.9162C51.619 35.701 51.7468 35.7399 51.7468 35.7399C51.6255 35.8936 51.3656 36.0228 51.263 36.0698C51.2613 36.2439 51.2565 36.4022 51.2501 36.5406C51.5569 36.3537 51.6672 36.3874 51.6672 36.3874C51.5596 36.5232 51.3251 36.6382 51.2449 36.6747C51.232 36.9027 51.2147 37.0446 51.1954 37.0467C51.1946 37.0467 51.1946 37.0474 51.1946 37.0474C51.1753 37.0467 51.1576 36.9041 51.1447 36.6772C51.0713 36.6436 50.827 36.5265 50.7159 36.3874C50.7159 36.3874 50.8277 36.3537 51.1382 36.5448C51.1331 36.4068 51.1287 36.2468 51.1267 36.0719ZM47.8659 33.9099V36.2461V42.8543C47.8642 48.3601 43.5644 52.8393 38.2788 52.8393C32.9947 52.8393 28.6942 48.3601 28.6928 42.8556V29.9271H29.8393L31.9258 29.9264L34.504 29.9271L35.7156 29.9264L37.7934 29.9271L38.7657 29.9264L40.8435 29.9271L42.0551 29.9264L44.633 29.9271L46.7198 29.9264L47.8659 29.9271V32.0243V33.9099ZM49.3599 32.7857C49.3599 32.7857 49.4146 32.6795 49.7652 32.5853C49.6677 32.4919 49.5563 32.3829 49.4353 32.2604C49.3364 32.3015 49.0582 32.4045 48.8652 32.3854C48.8652 32.3854 48.929 32.2629 49.3307 32.1542C49.2889 32.1111 49.2461 32.0672 49.2022 32.0215C49.1241 31.9401 49.0537 31.8661 48.9885 31.796C48.9012 31.8304 48.712 31.8966 48.5784 31.8831C48.5784 31.8831 48.6249 31.795 48.911 31.7139C48.612 31.3932 48.4499 31.1953 48.3596 31.0378C48.486 31.1274 48.6895 31.2998 49.0044 31.6123C49.082 31.3185 49.1662 31.27 49.1662 31.27C49.1784 31.4081 49.1176 31.5995 49.0847 31.6934C49.1536 31.7613 49.225 31.8346 49.3035 31.916C49.3463 31.961 49.3871 32.0042 49.4282 32.0477C49.5322 31.6346 49.6483 31.5688 49.6483 31.5688C49.6667 31.7666 49.5709 32.0491 49.5315 32.1574C49.6477 32.2835 49.7523 32.3988 49.8423 32.5004C49.9313 32.1411 50.0319 32.0849 50.0319 32.0849C50.0483 32.2604 49.9599 32.5146 49.928 32.5995C50.0754 32.7716 50.16 32.8855 50.1464 32.8997C50.1322 32.9135 50.0245 32.8261 49.8597 32.6742C49.7846 32.705 49.5322 32.8034 49.3599 32.7857ZM51.1267 31.743C51.0292 31.6987 50.7611 31.5667 50.6377 31.4106C50.6377 31.4106 50.7666 31.3709 51.1243 31.5896C51.1243 31.5284 51.1236 31.4665 51.1236 31.402C51.1236 31.287 51.1243 31.1833 51.1246 31.0856C51.0401 31.0445 50.8613 30.9519 50.7761 30.8442C50.7761 30.8442 50.8722 30.8205 51.1267 30.9713C51.1331 30.5238 51.1518 30.2637 51.1946 30.0853C51.2242 30.2421 51.2501 30.5143 51.2616 30.9699C51.5117 30.8219 51.6071 30.8442 51.6071 30.8442C51.5232 30.9497 51.3503 31.0414 51.263 31.0831C51.2657 31.1819 51.2663 31.2863 51.2663 31.402C51.2663 31.4651 51.2657 31.5256 51.2657 31.5861C51.619 31.3716 51.7468 31.4106 51.7468 31.4106C51.6255 31.5642 51.3656 31.6934 51.263 31.7404C51.2613 31.9153 51.2565 32.0732 51.2501 32.2112C51.5569 32.0243 51.6672 32.0587 51.6672 32.0587C51.5596 32.1939 51.3251 32.3089 51.2449 32.3443C51.232 32.5734 51.2147 32.716 51.1954 32.7171C51.1946 32.7171 51.1946 32.7171 51.1946 32.7185C51.1753 32.7171 51.1576 32.5751 51.1447 32.3479C51.0713 32.3142 50.827 32.1971 50.7159 32.0587C50.7159 32.0587 50.8277 32.0236 51.1382 32.2159C51.1331 32.0774 51.1287 31.9178 51.1267 31.743ZM52.357 32.0806C52.357 32.0806 52.459 32.1387 52.5483 32.5026C52.638 32.401 52.7433 32.2845 52.8602 32.1588C52.8215 32.0565 52.7219 31.7666 52.74 31.5649C52.74 31.5649 52.8575 31.6315 52.9622 32.0499C53.0046 32.006 53.0461 31.9617 53.0899 31.916C53.168 31.8346 53.2387 31.7617 53.3057 31.6934C53.2727 31.6024 53.2102 31.4053 53.2224 31.2662C53.2224 31.2662 53.3077 31.3143 53.3852 31.6123C53.6934 31.3008 53.8829 31.132 54.0335 31.0378C53.9481 31.1699 53.783 31.3819 53.482 31.7107C53.765 31.7914 53.8109 31.8788 53.8109 31.8788C53.6797 31.8909 53.4949 31.8279 53.4059 31.7935C53.3393 31.8654 53.2697 31.9394 53.1909 32.0215C53.1477 32.0664 53.1062 32.109 53.0648 32.1514C53.4606 32.2604 53.5241 32.3815 53.5241 32.3815C53.3349 32.4002 53.0634 32.3008 52.9591 32.259C52.8381 32.3801 52.7284 32.4898 52.6302 32.5825C52.9744 32.6767 53.0294 32.7818 53.0294 32.7818C52.8609 32.7981 52.6166 32.7057 52.5361 32.6728C52.3692 32.8254 52.2609 32.9135 52.2466 32.8997C52.233 32.8855 52.3176 32.7723 52.4631 32.601C52.4332 32.5234 52.3404 32.2604 52.357 32.0806ZM52.357 36.4103C52.357 36.4103 52.459 36.4673 52.5483 36.8319C52.638 36.7303 52.7433 36.6146 52.8602 36.4889C52.8215 36.3859 52.7219 36.0953 52.74 35.8943C52.74 35.8943 52.8575 35.9608 52.9622 36.3792C53.0046 36.3349 53.0461 36.291 53.0899 36.2461C53.168 36.1632 53.2387 36.0914 53.3057 36.0227C53.2727 35.9311 53.2102 35.7339 53.2224 35.5955C53.2224 35.5955 53.3077 35.6432 53.3852 35.9413C53.6934 35.6313 53.8829 35.4617 54.0335 35.3672C53.9481 35.4985 53.783 35.7113 53.482 36.0393C53.765 36.12 53.8109 36.2075 53.8109 36.2075C53.6797 36.221 53.4949 36.1579 53.4059 36.1229C53.3393 36.1941 53.2697 36.2694 53.1909 36.3508C53.1477 36.3962 53.1062 36.4383 53.0648 36.4808C53.4606 36.5898 53.5241 36.7108 53.5241 36.7108C53.3349 36.7296 53.0634 36.6294 52.9591 36.5877C52.8381 36.7094 52.7284 36.8184 52.6302 36.9116C52.9744 37.0057 53.0294 37.1104 53.0294 37.1104C52.8609 37.1274 52.6166 37.0351 52.5361 37.0015C52.3692 37.1551 52.2609 37.2439 52.2466 37.229C52.233 37.2149 52.3176 37.102 52.4631 36.931C52.4332 36.8528 52.3404 36.5898 52.357 36.4103ZM50.9575 33.38V32.899C50.9102 32.8848 50.8685 32.8579 50.8246 32.8364L50.5365 32.9411L50.9575 33.38ZM51.4263 33.38L51.9068 32.8781C51.863 32.7992 51.8314 32.716 51.8134 32.6279C51.7088 32.7577 51.5769 32.8463 51.4263 32.894V33.38ZM54.7918 37.28L53.3057 37.3749C53.0763 37.5494 52.8368 37.6443 52.6122 37.6443C52.483 37.6443 52.3604 37.6092 52.2459 37.5487L51.919 37.8895H52.5442C52.6741 37.8895 52.7794 37.9986 52.7794 38.133C52.7794 38.2683 52.6741 38.3773 52.5442 38.3773H49.839C49.7091 38.3773 49.6038 38.2683 49.6038 38.133C49.6038 37.9986 49.7091 37.8895 49.839 37.8895H50.4642L50.1638 37.5763L50.0309 37.5841C49.9429 37.6192 49.8519 37.6443 49.7551 37.6443C49.6867 37.6443 49.616 37.6326 49.5451 37.6159L48.2749 37.6966V35.5222C48.3058 36.5597 49.3707 37.8177 50.0921 37.3628L50.6863 37.982H49.839C49.7595 37.982 49.6956 38.0485 49.6956 38.1313C49.6956 38.2127 49.7595 38.2792 49.839 38.2792H51.1912H52.5456C52.6237 38.2792 52.6876 38.2127 52.6876 38.1313C52.6876 38.0485 52.6237 37.982 52.5456 37.982H51.6972L52.2911 37.3628C53.0763 37.8581 54.2686 36.3232 54.0916 35.2528C53.0519 35.0674 51.5589 36.3388 52.0872 37.1569L51.334 37.9401V37.0641C52.2439 36.8549 52.0478 34.8734 51.192 34.243C50.3357 34.8734 50.1393 36.8549 51.0492 37.0641V37.9401L50.297 37.1569C50.8246 36.3388 49.3313 35.0667 48.2916 35.2521C48.2818 35.3109 48.276 35.3714 48.2749 35.4327V35.0758C48.346 35.0645 48.4207 35.0586 48.4969 35.0586C48.9923 35.0586 49.5464 35.3123 49.9585 35.6776L50.3092 35.5828C50.3938 35.0055 50.6547 34.4175 51.0829 34.1003C51.1117 34.0791 51.1474 34.066 51.1841 34.066C51.1868 34.066 51.1895 34.066 51.192 34.066C51.2276 34.0682 51.2592 34.0816 51.2864 34.101C51.6027 34.3361 51.8263 34.7187 51.9567 35.1353L55.1791 34.2607C54.7317 33.8703 54.4591 33.6073 54.0046 33.1701C54.027 33.0544 54.0505 32.9344 54.0742 32.8102C54.098 32.6856 54.1245 32.5571 54.1517 32.424C54.206 32.156 54.2662 31.8696 54.3365 31.5614L54.2138 31.6063C54.1259 31.9737 53.9451 32.351 53.6855 32.6714C53.3559 33.0784 52.9648 33.3128 52.6135 33.3128C52.483 33.3128 52.3604 33.277 52.2466 33.2158L51.919 33.557H52.5442C52.6741 33.557 52.7794 33.6664 52.7794 33.8016C52.7794 33.9372 52.6741 34.0459 52.5442 34.0459H49.839C49.7091 34.0459 49.6038 33.9372 49.6038 33.8016C49.6038 33.6664 49.7091 33.557 49.839 33.557H50.4642L50.1322 33.2112C50.0146 33.2749 49.8886 33.3128 49.7551 33.3128C49.6956 33.3128 49.6361 33.3032 49.5743 33.2898L48.2749 33.762V31.1926C48.3058 32.2307 49.3707 33.4891 50.0921 33.0335L50.6863 33.6529H49.839C49.7595 33.6529 49.6956 33.7199 49.6956 33.8016C49.6956 33.883 49.7595 33.9499 49.839 33.9499H51.1912H52.5456C52.6237 33.9499 52.6876 33.883 52.6876 33.8016C52.6876 33.7199 52.6237 33.6529 52.5456 33.6529H51.6972L52.2911 33.0335C53.0763 33.5287 54.2686 31.9946 54.0916 30.9242C53.0519 30.7387 51.5589 32.0102 52.0872 32.8275L51.334 33.6115V32.7348C52.2439 32.5263 52.0478 30.5448 51.192 29.9136C50.3357 30.5448 50.1393 32.5263 51.0492 32.7348V33.6115L50.297 32.8275C50.8246 32.0102 49.3313 30.738 48.2916 30.9235C48.2818 30.9812 48.276 31.0428 48.2749 31.104V30.7433C48.346 30.7317 48.4207 30.7257 48.4969 30.7257C48.7442 30.7257 49.0072 30.7912 49.2603 30.9001L52.5463 28.2507C52.4144 28.192 52.2762 28.135 52.1362 28.079C51.8579 27.9672 51.5718 27.8617 51.3122 27.7633C51.1825 27.7145 51.0591 27.6674 50.9466 27.622C50.9361 27.5138 50.9245 27.3934 50.9123 27.2649C50.8994 27.1371 50.8858 27.0012 50.8715 26.8614C50.844 26.5835 50.8141 26.2908 50.7846 26.019L47.1884 29.4765H44.9312L48.5046 24.0941C48.2825 24.0757 48.0416 24.0538 47.7997 24.0307C47.571 24.0106 47.3423 23.9897 47.1272 23.9709C46.9795 23.9589 46.8384 23.9472 46.7093 23.9387C46.6427 23.8237 46.5765 23.7051 46.5106 23.5826C46.3556 23.2955 46.201 22.9926 46.0488 22.6988C46.0067 22.6181 45.9648 22.5367 45.9241 22.457L42.2881 29.4765H40.9747L43.3007 21.4648C42.7587 21.5817 42.2059 21.7258 41.6874 21.7979C41.5869 21.7377 41.4846 21.6659 41.382 21.5884C41.2787 21.5105 41.1741 21.4263 41.0694 21.3396C40.8608 21.1668 40.6491 20.9852 40.4398 20.833L38.848 29.4765H37.7104L36.1193 20.833C35.91 20.9852 35.6983 21.1668 35.489 21.3396C35.2803 21.5133 35.0724 21.6773 34.8716 21.7979C34.7411 21.7802 34.61 21.7576 34.4768 21.7317C34.2386 21.6861 33.9977 21.6308 33.7548 21.5763C33.5883 21.5382 33.4228 21.5003 33.2583 21.4648L35.5845 29.4765H34.2709L30.635 22.457C30.5419 22.6354 30.4464 22.8198 30.3516 23.005C30.2507 23.2 30.1505 23.3943 30.0478 23.5826C29.9826 23.7051 29.916 23.8237 29.8497 23.9387C29.7203 23.9472 29.5796 23.9589 29.4312 23.9709C29.2103 23.9904 28.9738 24.012 28.7387 24.0336C28.5039 24.0551 28.2698 24.0771 28.0544 24.0941L31.6265 29.4765H29.3704L29.138 29.2532L25.7745 26.019C25.7596 26.1549 25.745 26.2954 25.7293 26.4381C25.6855 26.8632 25.6434 27.2964 25.6124 27.622C25.4993 27.6674 25.3767 27.7145 25.2469 27.7633C24.9873 27.8617 24.7019 27.9672 24.4222 28.079C24.2826 28.135 24.1447 28.192 24.0121 28.2507L27.2128 30.8308C27.5349 30.6726 27.8662 30.5703 28.175 30.5703L28.2107 30.571L28.2841 30.5731V31.3677C28.2589 31.4523 28.2294 31.5373 28.1957 31.6233L28.2841 31.6945V33.762L27.0337 33.3086C26.8872 33.448 26.7368 33.5737 26.5883 33.676C26.5339 33.9778 26.2815 34.202 25.9787 34.202C25.9077 34.202 25.8404 34.1874 25.7759 34.1637C26.012 34.5177 26.1891 35.0154 26.2821 35.5912L26.4792 35.6447C26.9899 35.2528 27.6192 34.9212 28.175 34.9212L28.2107 34.9219L28.2841 34.9233V35.7219C28.2467 35.8458 28.2002 35.9714 28.1455 36.0974L28.2841 36.1342V37.6966L27.0772 37.6191C26.9165 37.7766 26.751 37.9147 26.5883 38.0269C26.5339 38.3288 26.2815 38.5529 25.9787 38.5529C25.9108 38.5529 25.8462 38.5391 25.7847 38.5175C25.8469 38.6131 25.9064 38.7178 25.96 38.8314H28.2841V42.879C28.2841 44.2832 28.5515 45.6219 29.0361 46.8445C28.5032 47.1277 27.9902 47.8445 27.6681 48.5836C27.3032 47.8448 26.7497 47.1553 26.1996 46.944C25.9617 47.5188 26.0728 48.4423 26.3511 49.2416C25.5486 48.9343 24.585 48.8164 24.0063 49.0929C24.3468 49.981 25.8081 50.8504 26.7999 50.9647C26.7891 50.9459 26.7731 50.9317 26.7639 50.9108C26.68 50.707 26.751 50.4822 26.9152 50.3559C26.9046 50.352 26.8975 50.3491 26.8859 50.3452C26.8264 50.4058 26.6678 50.5576 26.5315 50.6032C26.5315 50.6032 26.541 50.5006 26.7813 50.3048C26.6148 50.2408 26.4306 50.1675 26.2332 50.0879C26.1609 50.1601 25.9838 50.329 25.8312 50.3792C25.8312 50.3792 25.8424 50.2624 26.1149 50.0398C26.031 50.0054 25.9471 49.9711 25.8598 49.9346C25.7752 49.8996 25.6984 49.8674 25.621 49.8352C25.5435 49.9137 25.3284 50.1212 25.1456 50.1827C25.1456 50.1827 25.1579 50.0436 25.4857 49.7778C25.2954 49.6971 25.1272 49.6252 24.9808 49.5597C24.9169 49.6245 24.763 49.7697 24.6322 49.8143C24.6322 49.8143 24.6411 49.7105 24.8812 49.5155C24.5557 49.369 24.339 49.2571 24.1841 49.1583C24.339 49.1995 24.5778 49.2752 24.9234 49.4037C24.8789 49.0904 24.9394 49.0097 24.9394 49.0097C25.006 49.1347 25.0223 49.3488 25.026 49.4422C25.1752 49.4985 25.345 49.5654 25.535 49.6419C25.4742 49.2189 25.5564 49.1098 25.5564 49.1098C25.6475 49.2833 25.6668 49.5796 25.6712 49.6971C25.7494 49.7286 25.8268 49.7605 25.9128 49.7966C25.9988 49.8324 26.0813 49.8674 26.1639 49.9024C26.1156 49.5506 26.184 49.4596 26.184 49.4596C26.2584 49.6016 26.2777 49.8433 26.2815 49.9523C26.4779 50.0355 26.6593 50.1144 26.8234 50.1877C26.7799 49.8787 26.84 49.7987 26.84 49.7987C26.906 49.925 26.9223 50.1421 26.926 50.2334C26.9681 50.2528 27.0014 50.2684 27.0398 50.2858C27.2587 50.2118 27.4989 50.3162 27.592 50.5402C27.6235 50.6189 27.6266 50.7002 27.6178 50.7792C27.6681 50.7771 27.7197 50.7703 27.7687 50.7494C27.8121 50.7285 27.8464 50.6971 27.8798 50.6659C27.8869 50.6652 27.8941 50.6613 27.9005 50.6606C27.8424 50.6167 27.7921 50.5622 27.7584 50.4917C27.7571 50.4924 27.752 50.5006 27.7513 50.5006C27.7489 50.4999 27.7534 50.4864 27.752 50.4815C27.7506 50.4783 27.7476 50.4754 27.7455 50.4716C27.6565 50.255 27.7411 50.0147 27.927 49.895C27.9426 49.8507 27.9542 49.8128 27.9708 49.7658C27.9097 49.6992 27.77 49.5389 27.7276 49.4019C27.7276 49.4019 27.825 49.4111 28.0096 49.656C28.0718 49.4826 28.1414 49.2908 28.2175 49.0847C28.1455 49.0069 27.9902 48.826 27.9433 48.6724C27.9433 48.6724 28.0537 48.6833 28.264 48.9619C28.297 48.8748 28.3299 48.7889 28.3642 48.6986C28.3979 48.6105 28.4295 48.529 28.4618 48.4483C28.3822 48.3637 28.1893 48.1443 28.1318 47.9574C28.1318 47.9574 28.2634 47.9701 28.5168 48.3071C28.5936 48.1114 28.6646 47.9365 28.7278 47.785C28.6653 47.7178 28.5277 47.5577 28.4856 47.4226C28.4856 47.4226 28.5838 47.431 28.7723 47.6809C28.91 47.356 29.0153 47.1319 29.0927 46.985L29.0992 47.0013C29.0598 47.1797 28.9894 47.4091 28.8784 47.7259C29.1804 47.6795 29.2582 47.7429 29.2582 47.7429C29.1366 47.8126 28.93 47.8282 28.841 47.8328C28.7852 47.9875 28.72 48.1644 28.6453 48.3637C29.056 48.2986 29.1611 48.3853 29.1611 48.3853C28.9918 48.4816 28.6993 48.501 28.5916 48.5049C28.5613 48.5856 28.5308 48.6656 28.4968 48.7538C28.4625 48.8448 28.4282 48.9322 28.3945 49.0189C28.738 48.9665 28.826 49.0391 28.826 49.0391C28.6854 49.1191 28.4462 49.1375 28.347 49.1414C28.2668 49.3467 28.19 49.5364 28.1207 49.7059C28.4224 49.6596 28.4998 49.7226 28.4998 49.7226C28.3744 49.7941 28.1593 49.809 28.0754 49.8121C28.0724 49.8217 28.069 49.8284 28.0653 49.8373C28.2712 49.7905 28.4863 49.8914 28.5729 50.101C28.575 50.1055 28.5742 50.1095 28.5759 50.1137C29.0261 49.4429 29.3496 48.2951 29.2857 47.4257C30.9068 50.8967 34.3253 53.2899 38.2788 53.2899C43.7992 53.2899 48.2743 48.6288 48.2749 42.879V39.9181C48.3058 40.9563 49.3707 42.2143 50.0921 41.7594L50.6863 42.3786H49.839C49.7595 42.3786 49.6956 42.4451 49.6956 42.5272C49.6956 42.6086 49.7595 42.6751 49.839 42.6751H51.1912H52.5456C52.6237 42.6751 52.6876 42.6086 52.6876 42.5272C52.6876 42.4451 52.6237 42.3786 52.5456 42.3786H51.6972L52.2911 41.7594C53.0763 42.2547 54.2686 40.7202 54.0916 39.6498C53.0519 39.464 51.5589 40.7354 52.0872 41.5531L51.334 42.3367V41.46C52.2439 41.2515 52.0478 39.2704 51.192 38.6392C50.3357 39.2704 50.1393 41.2515 51.0492 41.46V42.3367L50.297 41.5531C50.8246 40.7354 49.3313 39.4633 48.2916 39.6491C48.2818 39.7075 48.276 39.768 48.2749 39.8286V38.8314H50.754C50.8504 38.7015 50.9588 38.5854 51.0829 38.4938C51.1117 38.4722 51.1474 38.4601 51.1841 38.4601C51.1868 38.4601 51.1895 38.4601 51.192 38.4601C51.2276 38.4623 51.2592 38.4743 51.2864 38.4952C51.4097 38.5862 51.5174 38.7022 51.6129 38.8314H54.6264C54.7969 38.5461 54.9209 38.3458 55.0307 38.1688C55.6423 37.1919 55.9052 37.2096 54.7918 37.28ZM50.9575 37.525L50.7876 37.5359L50.9575 37.7122V37.525ZM51.4263 37.4953V37.7115L51.6472 37.4814L51.4263 37.4953ZM44.2286 49.4012L43.9619 49.6359L44.0679 49.2886L43.844 49.1124H44.1144L44.2286 48.7783L44.3302 49.1124H44.6234L44.3863 49.2886L44.4974 49.6359L44.2286 49.4012ZM44.7298 48.7573L44.4627 48.9906L44.5698 48.6444L44.3445 48.4674H44.6156L44.7298 48.1329L44.8321 48.4674H45.1246L44.8874 48.6444L44.9978 48.9906L44.7298 48.7573ZM45.2008 48.1888L44.9347 48.4229L45.0414 48.0756L44.8164 47.9H45.0876L45.2008 47.5659L45.3033 47.9H45.5965L45.3591 48.0756L45.4701 48.4229L45.2008 48.1888ZM45.6438 47.4979L45.3764 47.7319L45.4837 47.3847L45.2581 47.2084H45.5296L45.6438 46.8742L45.7457 47.2084H46.0383L45.8014 47.3847L45.9118 47.7319L45.6438 47.4979ZM46.0417 46.7302L45.7756 46.9634L45.8813 46.6165L45.656 46.441H45.9278L46.0417 46.1065L46.1436 46.441H46.4361L46.1993 46.6165L46.3097 46.9634L46.0417 46.7302ZM46.3947 45.9012L46.1293 46.1348L46.2354 45.7876L46.0101 45.6113H46.2812L46.3947 45.2768L46.497 45.6113H46.7902L46.553 45.7876L46.6634 46.1348L46.3947 45.9012ZM46.6461 45.0106L46.3794 45.2446L46.4861 44.8973L46.2612 44.7211H46.5316L46.6461 44.3862L46.7473 44.7211H47.0405L46.8038 44.8973L46.9142 45.2446L46.6461 45.0106ZM46.7926 44.1352L46.5258 44.3692L46.6332 44.022L46.4079 43.8465H46.6797L46.7926 43.5116L46.8955 43.8465H47.188L46.9509 44.022L47.0613 44.3692L46.7926 44.1352ZM46.8663 43.204L46.6002 43.4376L46.7069 43.091L46.482 42.9155H46.7531L46.8663 42.5803L46.9689 42.9155H47.2621L47.0246 43.091L47.1357 43.4376L46.8663 43.204ZM46.8663 42.273L46.6002 42.5063L46.7069 42.1591L46.482 41.9842H46.7531L46.8663 41.6494L46.9689 41.9842H47.2621L47.0246 42.1591L47.1357 42.5063L46.8663 42.273ZM46.8663 41.3418L46.6002 41.5754L46.7069 41.2281L46.482 41.0518H46.7531L46.8663 40.7181L46.9689 41.0518H47.2621L47.0246 41.2281L47.1357 41.5754L46.8663 41.3418ZM46.8663 40.4098L46.6002 40.6441L46.7069 40.2968L46.482 40.1206H46.7531L46.8663 39.7861L46.9689 40.1206H47.2621L47.0246 40.2968L47.1357 40.6441L46.8663 40.4098ZM46.8663 39.4788L46.6002 39.7128L46.7069 39.3659L46.482 39.1896H46.7531L46.8663 38.8558L46.9689 39.1896H47.2621L47.0246 39.3659L47.1357 39.7128L46.8663 39.4788ZM46.8663 38.5476L46.6002 38.7819L46.7069 38.4346L46.482 38.2591H46.7531L46.8663 37.9246L46.9689 38.2591H47.2621L47.0246 38.4346L47.1357 38.7819L46.8663 38.5476ZM46.8663 37.6166L46.6002 37.8506L46.7069 37.5034L46.482 37.3271H46.7531L46.8663 36.9936L46.9689 37.3271H47.2621L47.0246 37.5034L47.1357 37.8506L46.8663 37.6166ZM46.8663 36.6854L46.6002 36.9193L46.7069 36.5724L46.482 36.3962H46.7531L46.8663 36.0609L46.9689 36.3962H47.2621L47.0246 36.5724L47.1357 36.9193L46.8663 36.6854ZM46.8663 35.7541L46.6002 35.9884L46.7069 35.6412L46.482 35.4642H46.7531L46.8663 35.13L46.9689 35.4642H47.2621L47.0246 35.6412L47.1357 35.9884L46.8663 35.7541ZM46.8663 34.8232L46.6002 35.0564L46.7069 34.7099L46.482 34.5333H46.7531L46.8663 34.1987L46.9689 34.5333H47.2621L47.0246 34.7099L47.1357 35.0564L46.8663 34.8232ZM46.8663 33.8919L46.6002 34.1255L46.7069 33.7783L46.482 33.602H46.7531L46.8663 33.2675L46.9689 33.602H47.2621L47.0246 33.7783L47.1357 34.1255L46.8663 33.8919ZM46.8663 32.9595L46.6002 33.1942L46.7069 32.847L46.482 32.6707H46.7531L46.8663 32.3365L46.9689 32.6707H47.2621L47.0246 32.847L47.1357 33.1942L46.8663 32.9595ZM46.8663 32.0289L46.6002 32.2629L46.7069 31.9153L46.482 31.7397H46.7531L46.8663 31.4053L46.9689 31.7397H47.2621L47.0246 31.9153L47.1357 32.2629L46.8663 32.0289ZM44.2864 31.0976L44.0196 31.3319L44.1267 30.9841L43.9014 30.8084H44.1719L44.2864 30.474L44.3883 30.8084H44.6809L44.4444 30.9841L44.5548 31.3319L44.2864 31.0976ZM45.1463 31.0976L44.8796 31.3319L44.9863 30.9841L44.7618 30.8084H45.0322L45.1463 30.474L45.248 30.8084H45.5412L45.304 30.9841L45.4151 31.3319L45.1463 31.0976ZM46.0067 31.0976L45.74 31.3319L45.8466 30.9841L45.6217 30.8084H45.8925L46.0067 30.474L46.1083 30.8084H46.4015L46.1643 30.9841L46.2754 31.3319L46.0067 31.0976ZM46.8663 31.0976L46.6002 31.3319L46.7069 30.9841L46.482 30.8084H46.7531L46.8663 30.474L46.9689 30.8084H47.2621L47.0246 30.9841L47.1357 31.3319L46.8663 31.0976ZM29.6921 31.0976L29.9588 31.3319L29.8514 30.9841L30.077 30.8084H29.8056L29.6921 30.474L29.5901 30.8084H29.2969L29.5344 30.9841L29.4233 31.3319L29.6921 31.0976ZM30.5524 31.0976L30.8192 31.3319L30.7118 30.9841L30.9371 30.8084H30.6666L30.5524 30.474L30.4508 30.8084H30.1576L30.3941 30.9841L30.2836 31.3319L30.5524 31.0976ZM31.4124 31.0976L31.6788 31.3319L31.572 30.9841L31.7973 30.8084H31.5269L31.4124 30.474L31.3104 30.8084H31.0179L31.2544 30.9841L31.144 31.3319L31.4124 31.0976ZM32.2727 31.0976L32.5387 31.3319L32.4324 30.9841L32.657 30.8084H32.3865L32.2727 30.474L32.1708 30.8084H31.8782L32.1146 30.9841L32.0036 31.3319L32.2727 31.0976ZM33.1323 31.0976L33.3991 31.3319L33.2931 30.9841L33.5173 30.8084H33.2465L33.1323 30.474L33.0311 30.8084H32.7385L32.9747 30.9841L32.8636 31.3319L33.1323 31.0976ZM33.9926 31.0976L34.2593 31.3319L34.1533 30.9841L34.3776 30.8084H34.1068L33.9926 30.474L33.891 30.8084H33.5978L33.835 30.9841L33.7238 31.3319L33.9926 31.0976ZM34.8529 31.0976L35.1197 31.3319L35.0129 30.9841L35.2375 30.8084H34.9671L34.8529 30.474L34.7506 30.8084H34.4581L34.6946 30.9841L34.5849 31.3319L34.8529 31.0976ZM35.7129 31.0976L35.9803 31.3319L35.8733 30.9841L36.0985 30.8084H35.8274L35.7129 30.474L35.611 30.8084H35.3184L35.5556 30.9841L35.4451 31.3319L35.7129 31.0976ZM36.5738 31.0976L36.8393 31.3319L36.7336 30.9841L36.9588 30.8084H36.687L36.5738 30.474L36.4713 30.8084H36.1794L36.4155 30.9841L36.3045 31.3319L36.5738 31.0976ZM37.4342 31.0976L37.7002 31.3319L37.5935 30.9841L37.8185 30.8084H37.547L37.4342 30.474L37.3316 30.8084H37.0384L37.2758 30.9841L37.1648 31.3319L37.4342 31.0976ZM38.2938 31.0976L38.5605 31.3319L38.4538 30.9841L38.6788 30.8084H38.408L38.2938 30.474L38.1922 30.8084H37.899L38.1362 30.9841L38.025 31.3319L38.2938 31.0976ZM29.6921 32.0289L29.9588 32.2629L29.8514 31.9153L30.077 31.7397H29.8056L29.6921 31.4053L29.5901 31.7397H29.2969L29.5344 31.9153L29.4233 32.2629L29.6921 32.0289ZM29.6921 32.9595L29.9588 33.1942L29.8514 32.847L30.077 32.6707H29.8056L29.6921 32.3365L29.5901 32.6707H29.2969L29.5344 32.847L29.4233 33.1942L29.6921 32.9595ZM29.6921 33.8919L29.9588 34.1255L29.8514 33.7783L30.077 33.602H29.8056L29.6921 33.2675L29.5901 33.602H29.2969L29.5344 33.7783L29.4233 34.1255L29.6921 33.8919ZM43.4261 31.0976L43.16 31.3319L43.2657 30.9841L43.0411 30.8084H43.3123L43.4261 30.474L43.528 30.8084H43.8206L43.5844 30.9841L43.6952 31.3319L43.4261 31.0976ZM42.5658 31.0976L42.2998 31.3319L42.4057 30.9841L42.1815 30.8084H42.4523L42.5658 30.474L42.6677 30.8084H42.9602L42.7241 30.9841L42.8352 31.3319L42.5658 31.0976ZM41.7061 31.0976L41.4394 31.3319L41.5455 30.9841L41.3211 30.8084H41.592L41.7061 30.474L41.8078 30.8084H42.101L41.8631 30.9841L41.9742 31.3319L41.7061 31.0976ZM40.8459 31.0976L40.5788 31.3319L40.6858 30.9841L40.4605 30.8084H40.7317L40.8459 30.474L40.9474 30.8084H41.2406L41.0029 30.9841L41.1139 31.3319L40.8459 31.0976ZM39.9852 31.0976L39.7185 31.3319L39.8248 30.9841L39.6002 30.8084H39.8714L39.9852 30.474L40.0878 30.8084H40.3797L40.1432 30.9841L40.2536 31.3319L39.9852 31.0976ZM39.1249 31.0976L38.8582 31.3319L38.9652 30.9841L38.7399 30.8084H39.0117L39.1249 30.474L39.2275 30.8084H39.5194L39.2833 30.9841L39.3937 31.3319L39.1249 31.0976ZM30.1641 45.9012L30.4298 46.1348L30.3237 45.7876L30.5483 45.6113H30.2772L30.1641 45.2768L30.0614 45.6113H29.7696L30.0061 45.7876L29.895 46.1348L30.1641 45.9012ZM30.5167 46.7302L30.7834 46.9634L30.6775 46.6165L30.9017 46.441H30.6313L30.5167 46.1065L30.4155 46.441H30.123L30.3598 46.6165L30.2486 46.9634L30.5167 46.7302ZM30.9153 47.4979L31.1813 47.7319L31.0753 47.3847L31.3009 47.2084H31.0288L30.9153 46.8742L30.8133 47.2084H30.5208L30.7576 47.3847L30.6465 47.7319L30.9153 47.4979ZM31.3577 48.1888L31.6244 48.4229L31.5177 48.0756L31.7426 47.9H31.4712L31.3577 47.5659L31.2557 47.9H30.9625L31.2 48.0756L31.0889 48.4229L31.3577 48.1888ZM31.8296 48.7573L32.0949 48.9906L31.9893 48.6444L32.2132 48.4674H31.9428L31.8296 48.1329L31.727 48.4674H31.4345L31.6716 48.6444L31.5606 48.9906L31.8296 48.7573ZM32.3301 49.4012L32.5969 49.6359L32.4898 49.2886L32.7151 49.1124H32.4446L32.3301 48.7783L32.2282 49.1124H31.9356L32.1721 49.2886L32.0617 49.6359L32.3301 49.4012ZM33.5393 50.4924L33.8061 50.7258L33.6987 50.3782L33.924 50.2025H33.6529L33.5393 49.8681L33.4364 50.2025H33.1517L33.0504 49.872L33.2751 49.6957H33.0045L32.8901 49.3616L32.7882 49.6957H32.4956L32.7327 49.872L32.622 50.2192L32.8901 49.9852L33.1568 50.2192L33.1537 50.21L33.381 50.3782L33.2706 50.7258L33.5393 50.4924ZM34.2019 50.9834L34.4686 51.217L34.362 50.8698L34.5869 50.6943H34.316L34.2019 50.3597L34.1003 50.6943H33.8071L34.0449 50.8698L33.9338 51.217L34.2019 50.9834ZM34.9392 51.3214L35.2053 51.5547L35.0989 51.2075L35.3241 51.0326H35.0523L34.9392 50.6978L34.8373 51.0326H34.5447L34.7812 51.2075L34.6701 51.5547L34.9392 51.3214ZM35.6018 51.5972L35.8692 51.8311L35.7628 51.4839L35.9874 51.3084H35.7163L35.6018 50.9742L35.4998 51.3084H35.2073L35.4445 51.4839L35.3341 51.8311L35.6018 51.5972ZM36.3245 51.828L36.5912 52.0619L36.4842 51.7147L36.7094 51.5392H36.439L36.3245 51.205L36.2219 51.5392H35.93L36.1672 51.7147L36.056 52.0619L36.3245 51.828ZM37.0907 51.9657L37.3574 52.2L37.2507 51.8527L37.4753 51.6765H37.2048L37.0907 51.3427L36.9891 51.6765H36.6965L36.933 51.8527L36.8219 52.2L37.0907 51.9657ZM37.8722 52.0588L38.1389 52.292L38.0315 51.9448L38.2568 51.7689H37.9856L37.8722 51.4343L37.7699 51.7689H37.4773L37.7145 51.9448L37.6034 52.292L37.8722 52.0588ZM43.0204 50.4924L42.753 50.7258L42.8604 50.3782L42.6347 50.2025H42.9062L43.0204 49.8681L43.122 50.2025H43.4067L43.5079 49.872L43.2841 49.6957H43.5545L43.669 49.3616L43.7702 49.6957H44.0634L43.8263 49.872L43.9367 50.2192L43.669 49.9852L43.4023 50.2192L43.404 50.21L43.1774 50.3782L43.2885 50.7258L43.0204 50.4924ZM42.3572 50.9834L42.0904 51.217L42.1964 50.8698L41.9722 50.6943H42.243L42.3572 50.3597L42.4587 50.6943H42.7513L42.5148 50.8698L42.6252 51.217L42.3572 50.9834ZM41.6195 51.3214L41.3528 51.5547L41.4601 51.2075L41.2349 51.0326H41.5054L41.6195 50.6978L41.7224 51.0326H42.0143L41.7779 51.2075L41.8883 51.5547L41.6195 51.3214ZM40.9569 51.5972L40.6895 51.8311L40.7969 51.4839L40.5717 51.3084H40.8428L40.9569 50.9742L41.0586 51.3084H41.3518L41.1139 51.4839L41.225 51.8311L40.9569 51.5972ZM40.2342 51.828L39.9675 52.0619L40.0742 51.7147L39.8496 51.5392H40.1201L40.2342 51.205L40.3358 51.5392H40.6291L40.3919 51.7147L40.503 52.0619L40.2342 51.828ZM39.4677 51.9657L39.2017 52.2L39.3083 51.8527L39.0828 51.6765H39.3536L39.4677 51.3427L39.5699 51.6765H39.8625L39.6261 51.8527L39.7365 52.2L39.4677 51.9657ZM38.6862 52.0588L38.4195 52.292L38.5269 51.9448L38.3017 51.7689H38.5735L38.6862 51.4343L38.7892 51.7689H39.0811L38.8446 51.9448L38.955 52.292L38.6862 52.0588ZM29.6921 42.273L29.9588 42.5063L29.8514 42.1591L30.077 41.9842H29.8056L29.6921 41.6494L29.5901 41.9842H29.2969L29.5344 42.1591L29.4233 42.5063L29.6921 42.273ZM29.6921 41.3418L29.9588 41.5754L29.8514 41.2281L30.077 41.0518H29.8056L29.6921 40.7181L29.5901 41.0518H29.2969L29.5344 41.2281L29.4233 41.5754L29.6921 41.3418ZM29.6921 40.4098L29.9588 40.6441L29.8514 40.2968L30.077 40.1206H29.8056L29.6921 39.7861L29.5901 40.1206H29.2969L29.5344 40.2968L29.4233 40.6441L29.6921 40.4098ZM29.6921 39.4788L29.9588 39.7128L29.8514 39.3659L30.077 39.1896H29.8056L29.6921 38.8558L29.5901 39.1896H29.2969L29.5344 39.3659L29.4233 39.7128L29.6921 39.4788ZM29.6921 38.5476L29.9588 38.7819L29.8514 38.4346L30.077 38.2591H29.8056L29.6921 37.9246L29.5901 38.2591H29.2969L29.5344 38.4346L29.4233 38.7819L29.6921 38.5476ZM29.6921 37.6166L29.9588 37.8506L29.8514 37.5034L30.077 37.3271H29.8056L29.6921 36.9936L29.5901 37.3271H29.2969L29.5344 37.5034L29.4233 37.8506L29.6921 37.6166ZM29.6921 36.6854L29.9588 36.9193L29.8514 36.5724L30.077 36.3962H29.8056L29.6921 36.0609L29.5901 36.3962H29.2969L29.5344 36.5724L29.4233 36.9193L29.6921 36.6854ZM29.6921 35.7541L29.9588 35.9884L29.8514 35.6412L30.077 35.4642H29.8056L29.6921 35.13L29.5901 35.4642H29.2969L29.5344 35.6412L29.4233 35.9884L29.6921 35.7541ZM29.6921 34.8232L29.9588 35.0564L29.8514 34.7099L30.077 34.5333H29.8056L29.6921 34.1987L29.5901 34.5333H29.2969L29.5344 34.7099L29.4233 35.0564L29.6921 34.8232ZM29.6921 43.204L29.9588 43.4376L29.8514 43.091L30.077 42.9155H29.8056L29.6921 42.5803L29.5901 42.9155H29.2969L29.5344 43.091L29.4233 43.4376L29.6921 43.204ZM29.7662 44.1352L30.0319 44.3692L29.9259 44.022L30.1505 43.8465H29.8793L29.7662 43.5116L29.6636 43.8465H29.3704L29.6082 44.022L29.4971 44.3692L29.7662 44.1352ZM29.913 45.0106L30.1797 45.2446L30.073 44.8973L30.2979 44.7211H30.0271L29.913 44.3862L29.8111 44.7211H29.5185L29.7546 44.8973L29.6449 45.2446L29.913 45.0106ZM31.1161 32.4233V42.8826C31.1161 47.0027 34.3232 50.3431 38.2788 50.3431C42.2351 50.3431 45.4416 47.0027 45.4423 42.8826V32.4233H31.1161ZM45.0029 42.7902C45.0012 46.6583 41.9922 49.7934 38.2788 49.7934C34.5668 49.7934 31.5572 46.6583 31.5564 42.7902V39.4714H45.0029V42.7902ZM45.0029 38.9089H31.5564V32.973H31.5578H45.0012H45.0029V38.9089ZM38.2925 36.4039L38.9183 36.9484L38.6682 36.1445L39.1939 35.73H38.554L38.2925 34.9464L38.056 35.73H37.3645L37.919 36.1445L37.6615 36.9484L38.2925 36.4039ZM43.9789 57.3159C43.7975 57.392 43.7308 57.5884 43.8063 57.7827C43.8844 57.9834 44.0659 58.0755 44.245 57.9993C44.4243 57.9233 44.4943 57.7257 44.4168 57.5251C44.3404 57.3314 44.159 57.2397 43.9789 57.3159Z" fill="#004F9F"/>
<path d="M0 95.4854V85.9812H2.86681V87.7261H2.97163C3.16893 87.1486 3.50184 86.6928 3.97038 86.3586C4.43893 86.0245 4.99792 85.8574 5.64729 85.8574C6.30493 85.8574 6.86803 86.0265 7.33657 86.3648C7.80518 86.7031 8.1031 87.1568 8.23053 87.7261H8.32914C8.50587 87.1609 8.85101 86.7092 9.3649 86.371C9.87879 86.0286 10.485 85.8574 11.1837 85.8574C12.0795 85.8574 12.8073 86.1462 13.3659 86.7237C13.925 87.2971 14.2045 88.085 14.2045 89.0874V95.4854H11.1899V89.7804C11.1899 89.306 11.0684 88.945 10.826 88.6975C10.5837 88.4459 10.2691 88.3201 9.88261 88.3201C9.46768 88.3201 9.14094 88.4562 8.9024 88.7285C8.66837 88.9966 8.55101 89.3576 8.55101 89.8113V95.4854H5.65348V89.7495C5.65348 89.3081 5.53428 88.9595 5.29591 88.7037C5.0575 88.448 4.74309 88.3201 4.35261 88.3201C4.08959 88.3201 3.85736 88.384 3.65594 88.5119C3.45455 88.6357 3.29632 88.8131 3.18125 89.044C3.07028 89.2751 3.01479 89.5473 3.01479 89.8608V95.4854H0ZM24.3403 88.8832L21.5718 88.9574C21.543 88.7594 21.4649 88.5841 21.3378 88.4315C21.2104 88.2747 21.0437 88.153 20.8382 88.0664C20.6368 87.9756 20.4028 87.9303 20.1354 87.9303C19.7861 87.9303 19.4882 88.0004 19.2416 88.1407C18.9989 88.2809 18.8798 88.4707 18.884 88.7099C18.8798 88.8956 18.9538 89.0564 19.1059 89.1926C19.2621 89.3287 19.5396 89.438 19.9382 89.5205L21.7632 89.867C22.7083 90.0485 23.4111 90.3497 23.8715 90.7704C24.3361 91.1912 24.5701 91.7481 24.5743 92.4411C24.5701 93.0929 24.3771 93.6601 23.9948 94.1427C23.6166 94.6254 23.0989 95.0007 22.4413 95.2689C21.7837 95.5329 21.0316 95.6649 20.1847 95.6649C18.8326 95.6649 17.7659 95.3864 16.985 94.8295C16.2083 94.2685 15.7642 93.5177 15.6534 92.5772L18.6312 92.503C18.6969 92.8495 18.8673 93.1135 19.143 93.295C19.4184 93.4765 19.7698 93.5672 20.1972 93.5672C20.5833 93.5672 20.8979 93.4951 21.1403 93.3507C21.383 93.2063 21.5062 93.0145 21.5104 92.7752C21.5062 92.5607 21.4118 92.3895 21.2267 92.2616C21.0416 92.1296 20.7521 92.0265 20.3573 91.9523L18.7052 91.6367C17.7555 91.4634 17.0489 91.1437 16.5843 90.6776C16.1198 90.2073 15.8896 89.6092 15.8937 88.8832C15.8896 88.2479 16.0583 87.7055 16.3993 87.2558C16.7406 86.8021 17.2257 86.4555 17.8545 86.2163C18.4833 85.977 19.225 85.8574 20.0798 85.8574C21.3625 85.8574 22.3736 86.1276 23.1132 86.668C23.8531 87.2043 24.2621 87.9426 24.3403 88.8832Z" fill="white"/>
<path d="M29.0622 98.5923C30.2122 99.7055 31.9854 100.365 33.5837 100.365C37.4229 100.365 38.6892 97.7677 38.6892 94.9233V85.648H36.916V87.2146H36.8771C36.1753 85.9984 34.8698 85.3799 33.5444 85.3799C30.7188 85.3799 28.9062 87.6679 28.9062 90.4711C28.9062 93.2746 30.7382 95.5006 33.5639 95.5006C34.8698 95.5006 36.1365 94.9027 36.8184 93.8104H36.8573V95.0678C36.8573 97.0876 36.0389 98.6747 33.6031 98.6747C32.3365 98.6747 31.0306 98.0359 30.2316 97.0877L29.0622 98.5923ZM58.4202 85.648H56.4715L53.7431 93.3363H53.7042L50.9951 85.648H48.9684L52.7299 95.4181H54.7177L58.4202 85.648ZM49.334 90.5123C49.334 87.503 47.1708 85.3799 44.3451 85.3799C41.5195 85.3799 39.3757 87.503 39.3757 90.5123C39.3757 93.5218 41.5195 95.6861 44.3451 95.6861C47.1708 95.6861 49.334 93.5218 49.334 90.5123ZM47.4243 90.5123C47.4243 92.3673 46.3326 94.0576 44.3451 94.0576C42.3767 94.0576 41.266 92.3673 41.266 90.5123C41.266 88.6572 42.3767 86.9876 44.3451 86.9876C46.3326 86.9876 47.4243 88.6572 47.4243 90.5123ZM30.7965 90.43C30.7965 88.5542 31.9271 86.9876 33.8563 86.9876C35.7274 86.9876 36.9938 88.575 36.9938 90.43C36.9938 92.3673 35.7465 93.8721 33.8563 93.8721C31.9271 93.8721 30.7965 92.2232 30.7965 90.43Z" fill="white"/>
<path d="M71.4648 87.8091V95.2266H73.3033V90.2617C73.3033 88.6863 74.1439 87.2309 75.9043 87.2309C76.1977 87.2309 76.5109 87.2708 76.7453 87.3305L76.8238 85.5958C76.6085 85.5361 76.3543 85.5159 76.1002 85.5159C74.8481 85.5159 73.7727 86.2739 73.2641 87.3703H73.2054C73.2054 86.9717 73.1662 86.2539 73.1273 85.7754H71.3863C71.445 86.3934 71.4648 87.3106 71.4648 87.8091ZM62.6703 93.7311C63.3943 94.8677 64.7047 95.4859 66.0151 95.4859C68.8707 95.4859 70.6898 93.2526 70.6898 90.4809C70.6898 87.6895 68.812 85.5159 66.0543 85.5159C64.5287 85.5159 63.3745 86.2739 62.7488 87.1909H62.6901V80.1523H60.8516V95.2266H62.6314V93.7311H62.6703ZM68.7925 90.4809C68.7925 92.2556 67.7165 93.9105 65.7023 93.9105C63.8248 93.9105 62.5727 92.3155 62.5727 90.501C62.5727 88.6863 63.8248 87.0713 65.7023 87.0713C67.7165 87.0713 68.7925 88.7064 68.7925 90.4809Z" fill="white"/>
<path d="M28.3432 93.9818C28.3432 93.0777 27.6384 92.3496 26.7148 92.3496C25.7908 92.3496 25.0859 93.103 25.0859 94.007C25.0859 94.8856 25.8151 95.639 26.7148 95.639C27.6384 95.639 28.3432 94.8604 28.3432 93.9818Z" fill="white"/>
<path d="M59.6639 93.6331C59.6639 92.7291 58.959 92.001 58.0354 92.001C57.1115 92.001 56.4062 92.7543 56.4062 93.6584C56.4062 94.537 57.1358 95.2904 58.0354 95.2904C58.959 95.2904 59.6639 94.5118 59.6639 93.6331Z" fill="white"/>
</svg>
